<?xml version="1.0" encoding="UTF-8" standalone="no"?>
<!-- Created with Inkscape (http://www.inkscape.org/) -->

<svg
   xmlns:dc="http://purl.org/dc/elements/1.1/"
   xmlns:cc="http://creativecommons.org/ns#"
   xmlns:rdf="http://www.w3.org/1999/02/22-rdf-syntax-ns#"
   xmlns:svg="http://www.w3.org/2000/svg"
   xmlns="http://www.w3.org/2000/svg"
   xmlns:sodipodi="http://sodipodi.sourceforge.net/DTD/sodipodi-0.dtd"
   xmlns:inkscape="http://www.inkscape.org/namespaces/inkscape"
   id="svg5028"
   sodipodi:docname="Own-pizza.svg"
   viewBox="0 0 223.06249 92.749997"
   version="1.1"
   inkscape:version="0.48.4 r9939"
   viewbox="0 0 449.5 140.625"
   width="100%"
   height="100%">
  <title
     id="title5127">Mushroom Pizza</title>
  <defs
     id="defs5030">
    <filter
       id="filter4126-1"
       color-interpolation-filters="sRGB"
       inkscape:collect="always">
      <feGaussianBlur
         id="feGaussianBlur4128-7"
         stdDeviation="1.5030532"
         inkscape:collect="always" />
    </filter>
  </defs>
  <sodipodi:namedview
     id="base"
     bordercolor="#666666"
     inkscape:pageshadow="2"
     inkscape:window-y="0"
     fit-margin-left="0"
     pagecolor="#ffffff"
     fit-margin-top="0"
     inkscape:window-maximized="1"
     inkscape:zoom="2"
     inkscape:window-x="0"
     inkscape:window-height="1054"
     showgrid="false"
     borderopacity="1.0"
     inkscape:current-layer="layer1"
     inkscape:cx="1.1066233"
     inkscape:cy="55.65468"
     fit-margin-right="0"
     fit-margin-bottom="0"
     inkscape:window-width="1920"
     inkscape:pageopacity="0.0"
     inkscape:document-units="px" />
  <g
     id="layer1"
     inkscape:label="Layer 1"
     inkscape:groupmode="layer"
     transform="translate(-294.12501,-447.6875)">
    <g
       id="g3022"
       transform="matrix(0.91375179,0,0,0.91375179,34.986126,42.611312)">
      <ellipse
         d="m 515.6076,494.05447 c 0,24.74573 -49.23208,44.80611 -109.96292,44.80611 -60.73084,0 -109.96291,-20.06038 -109.96291,-44.80611 0,-24.74572 49.23207,-44.8061 109.96291,-44.8061 60.73084,0 109.96292,20.06038 109.96292,44.8061 z"
         id="path3330-0"
         style="fill:#aa4400;stroke:#000000;stroke-width:3.14334869;stroke-linecap:round;stroke-linejoin:round"
         cx="405.64468"
         cy="494.05447"
         rx="109.96291"
         ry="44.806103"
         sodipodi:cx="405.64468"
         sodipodi:cy="494.05447"
         sodipodi:rx="109.96291"
         sodipodi:ry="44.806103" />
      <ellipse
         d="m 1637.9136,705.20947 c 0,37.44872 -99.5074,67.80691 -222.256,67.80691 -122.7486,0 -222.256,-30.35819 -222.256,-67.80691 0,-37.44872 99.5074,-67.8069 222.256,-67.8069 122.7486,0 222.256,30.35818 222.256,67.8069 z"
         id="path3330-1-9"
         style="fill:#ffcc00;stroke:#750000;stroke-width:5.49749184;stroke-linecap:round;stroke-linejoin:round;filter:url(#filter4126-1)"
         transform="matrix(0.43608954,0,0,0.51208554,-208.60455,134.40024)"
         cx="1415.6576"
         cy="705.20947"
         rx="222.25598"
         ry="67.806908"
         sodipodi:cx="1415.6576"
         sodipodi:cy="705.20947"
         sodipodi:rx="222.25598"
         sodipodi:ry="67.806908" />
      <path
         id="path4346-2"
         d="m 298.96262,496.36758 c 0,0 1.64689,5.65676 6.13599,10.69356 3.75068,4.20831 9.07691,8.22882 16.67735,11.55127 13.51977,5.91004 23.61529,9.19819 40.07787,12.2735 16.99398,3.17464 38.40209,3.973 43.58517,3.9921 5.1831,0.019 23.29228,-0.70757 41.51915,-3.48897 14.31284,-2.18405 30.78181,-7.08366 40.20948,-11.57505 9.95057,-4.74097 15.75802,-9.34621 19.6156,-13.54949 5.31765,-5.79328 5.55912,-9.93895 5.55912,-9.93895"
         sodipodi:nodetypes="cssszsssc"
         style="fill:none;stroke:#7e3400;stroke-width:5.02935791;stroke-linecap:round"
         inkscape:connector-curvature="0" />
    </g>
    <flowRoot
       transform="matrix(0.91375179,0,0,0.91375179,148.02636,418.9674)"
       style="font-size:11.25px;font-style:normal;font-weight:normal;line-height:171.99995518%;letter-spacing:0px;word-spacing:0px;fill:#000000;fill-opacity:1;stroke:none;font-family:sans-serif"
       id="flowRoot3377"
       xml:space="preserve"><flowRegion
         id="flowRegion3379"><rect
           style="font-size:11.25px;line-height:171.99995518%"
           y="63.619995"
           x="47"
           height="43.5"
           width="80"
           id="rect3381" /></flowRegion><flowPara
         id="flowPara3383" /></flowRoot>    <flowRoot
       transform="matrix(0.91375179,0,0,0.91375179,148.02636,418.9674)"
       style="font-size:10px;font-style:normal;font-weight:normal;line-height:125%;letter-spacing:0px;word-spacing:0px;fill:#000000;fill-opacity:1;stroke:none;font-family:sans-serif"
       id="flowRoot3385"
       xml:space="preserve"><flowRegion
         id="flowRegion3387"><rect
           y="132.62"
           x="4.5"
           height="9.5"
           width="54.5"
           id="rect3389" /></flowRegion><flowPara
         id="flowPara3391">Mushroom</flowPara></flowRoot>    <text
       sodipodi:linespacing="125%"
       id="text3423"
       y="487.15152"
       x="203.76527"
       style="font-size:9.13751793px;font-style:normal;font-weight:normal;line-height:125%;letter-spacing:0px;word-spacing:0px;fill:#000000;fill-opacity:1;stroke:none;font-family:sans-serif"
       xml:space="preserve"><tspan
         y="487.15152"
         x="203.76527"
         id="tspan3425"
         sodipodi:role="line" /></text>
    <flowRoot
       xml:space="preserve"
       id="flowRoot3802"
       style="font-size:10px;font-style:normal;font-weight:normal;line-height:125%;letter-spacing:0px;word-spacing:0px;fill:#000000;fill-opacity:1;stroke:none;font-family:sans-serif"
       transform="matrix(0.91375179,0,0,0.91375179,34.986126,42.611312)"><flowRegion
         id="flowRegion3804"><rect
           id="rect3806"
           width="278"
           height="22.5"
           x="149"
           y="8.1199961" /></flowRegion><flowPara
         id="flowPara3808" /></flowRoot>    <rect
       id="use3831"
       ry="7.2970037"
       style="fill:#165016"
       rx="0"
       transform="matrix(0.71825922,0.6957756,-0.70285828,0.71132991,0,0)"
       height="3.9371457"
       width="3.7613828"
       y="118.8471"
       x="616.45264" />
    <rect
       id="use3833"
       ry="7.2082944"
       style="fill:#165016"
       rx="0"
       transform="matrix(0.44711521,0.89447638,-0.89886266,0.43823044,0,0)"
       height="3.889282"
       width="3.7156563"
       y="-85.424881"
       x="603.65668" />
    <rect
       id="use3835"
       ry="7.2022529"
       style="fill:#165016"
       rx="0"
       transform="matrix(0.77243739,0.63509092,-0.64271337,0.76610673,0,0)"
       height="3.8860228"
       width="3.7125418"
       y="131.0666"
       x="581.24377" />
    <rect
       id="use3837"
       ry="7.1354589"
       style="fill:#165016"
       rx="0"
       transform="matrix(0.99071659,-0.13594349,0.14455624,0.98949659,0,0)"
       height="3.8499825"
       width="3.6833775"
       y="521.29022"
       x="293.55444" />
    <rect
       id="use3839"
       ry="7.1606293"
       style="fill:#165016"
       rx="0"
       transform="matrix(0.46806026,0.88369655,-0.88829092,0.45928123,0,0)"
       height="3.8635645"
       width="3.6910858"
       y="-80.388847"
       x="604.28668" />
    <rect
       id="use3841"
       ry="7.2285013"
       style="fill:#165016"
       rx="0"
       transform="matrix(0.53621155,0.84408363,-0.84935519,0.52782171,0,0)"
       height="3.9001846"
       width="3.7260725"
       y="-25.091612"
       x="614.96094" />
    <rect
       id="use3843"
       ry="7.0654926"
       style="fill:#165016"
       rx="0"
       transform="matrix(0.99389357,-0.11034301,0.11898438,0.99289613,0,0)"
       height="3.8122334"
       width="3.6472616"
       y="529.37183"
       x="316.33029" />
    <rect
       id="use3845"
       ry="7.2576747"
       style="fill:#165016"
       rx="0"
       transform="matrix(0.55911765,0.82908833,-0.83458761,0.55087524,0,0)"
       height="3.9159253"
       width="3.7411094"
       y="-3.2690701"
       x="615.92584" />
    <rect
       id="use3847"
       ry="7.1268845"
       style="fill:#165016"
       rx="0"
       transform="matrix(0.47446119,0.88027642,-0.8849344,0.46571569,0,0)"
       height="3.8453567"
       width="3.6736913"
       y="-81.508667"
       x="595.64172" />
    <rect
       id="use3849"
       ry="7.2764201"
       style="fill:#165016"
       rx="0"
       transform="matrix(0.66876705,0.74347202,-0.75006195,0.66136758,0,0)"
       height="3.9260397"
       width="3.750773"
       y="77.693619"
       x="619.04633" />
    <rect
       id="use3851"
       ry="7.1199498"
       style="fill:#165016"
       rx="0"
       transform="matrix(0.3900672,0.92078639,-0.92460614,0.38092451,0,0)"
       height="3.8416157"
       width="3.6701176"
       y="-130.88936"
       x="583.83698" />
    <rect
       id="use3853"
       ry="7.1026645"
       style="fill:#165016"
       rx="0"
       transform="matrix(0.98013864,0.1983135,-0.18978008,0.98182662,0,0)"
       height="3.8322887"
       width="3.6664493"
       y="399.71252"
       x="426.22729" />
    <rect
       id="use3855"
       ry="7.1654735"
       style="fill:#165016"
       rx="0"
       transform="matrix(0.50744692,0.86168302,-0.86666872,0.49888409,0,0)"
       height="3.8661778"
       width="3.6935833"
       y="-53.947018"
       x="609.86615" />
    <rect
       id="use3857"
       ry="7.1534925"
       style="fill:#165016"
       rx="0"
       transform="matrix(0.99995476,-0.0095125,0.0182104,0.99983418,0,0)"
       height="3.859714"
       width="3.6926875"
       y="503.69589"
       x="356.70444" />
    <rect
       id="use3859"
       ry="7.3084488"
       style="fill:#165016"
       rx="0"
       transform="matrix(0.75269813,0.6583658,-0.66579152,0.74613783,0,0)"
       height="3.9433217"
       width="3.767283"
       y="146.26901"
       x="614.39771" />
    <rect
       id="use3861"
       ry="7.0597234"
       style="fill:#165016"
       rx="0"
       transform="matrix(0.43181096,0.90196413,-0.90619842,0.42285273,0,0)"
       height="3.8091199"
       width="3.6390724"
       y="-98.60437"
       x="577.87036" />
    <rect
       id="use3863"
       ry="7.2217879"
       style="fill:#165016"
       rx="0"
       transform="matrix(0.8180594,0.57513374,-0.58321116,0.81232059,0,0)"
       height="3.8965621"
       width="3.7226117"
       y="169.47452"
       x="571.03027" />
    <rect
       id="use3865"
       ry="7.2139544"
       style="fill:#165016"
       rx="0"
       transform="matrix(0.81753871,0.57587365,-0.58394588,0.81179259,0,0)"
       height="3.8923361"
       width="3.7185736"
       y="168.98572"
       x="572.02515" />
    <rect
       id="use3867"
       ry="7.0603256"
       style="fill:#165016"
       rx="0"
       transform="matrix(0.78843119,0.61512296,-0.62290488,0.78229759,0,0)"
       height="3.8094449"
       width="3.6393826"
       y="125.38305"
       x="620.60687" />
    <rect
       id="use3869"
       ry="7.1647162"
       style="fill:#165016"
       rx="0"
       transform="matrix(0.76240552,0.64709955,-0.654622,0.75595637,0,0)"
       height="3.8657696"
       width="3.693193"
       y="86.654839"
       x="648.17371" />
    <rect
       id="use3871"
       ry="7.022737"
       style="fill:#165016"
       rx="0"
       transform="matrix(0.77964751,0.62621862,-0.63391298,0.77340438,0,0)"
       height="3.7891638"
       width="3.6200075"
       y="126.79477"
       x="618.55914" />
    <rect
       id="use3873"
       ry="7.4126906"
       style="fill:#165016"
       rx="0"
       transform="matrix(0.94305063,-0.33264924,0.34083993,0.94012134,0,0)"
       height="3.9995651"
       width="3.8264868"
       y="580.99554"
       x="185.07358" />
    <rect
       id="use3875"
       ry="7.2899046"
       style="fill:#165016"
       rx="0"
       transform="matrix(0.7681871,0.64022541,-0.6478055,0.76180577,0,0)"
       height="3.9333148"
       width="3.7577233"
       y="86.139091"
       x="657.84906" />
    <rect
       id="use3877"
       ry="7.3660469"
       style="fill:#165016"
       rx="0"
       transform="matrix(0.81639693,0.57749117,-0.58555203,0.81063483,0,0)"
       height="3.9743984"
       width="3.7969723"
       y="124.37432"
       x="646.80298" />
    <rect
       id="use3879"
       ry="7.3713622"
       style="fill:#165016"
       rx="0"
       transform="matrix(0.79937382,0.60083399,-0.60872502,0.79338127,0,0)"
       height="3.9772668"
       width="3.7997129"
       y="111.94547"
       x="660.45905" />
    <rect
       id="use3881"
       ry="7.2595148"
       style="fill:#165016"
       rx="0"
       transform="matrix(0.98760103,-0.15698472,0.16556958,0.98619811,0,0)"
       height="3.9169183"
       width="3.7474167"
       y="551.92084"
       x="358.09232" />
    <rect
       id="use3883"
       ry="7.302063"
       style="fill:#165016"
       rx="0"
       transform="matrix(0.79190105,0.61064943,-0.61846594,0.78581161,0,0)"
       height="3.9398763"
       width="3.7639911"
       y="103.4445"
       x="645.40668" />
    <rect
       id="use3885"
       ry="7.4032278"
       style="fill:#165016"
       rx="0"
       transform="matrix(0.98275612,-0.18490647,0.19344814,0.9811105,0,0)"
       height="3.9944594"
       width="3.8216021"
       y="582.18909"
       x="354.53497" />
    <rect
       id="use3887"
       ry="7.1538887"
       style="fill:#165016"
       rx="0"
       transform="matrix(0.76705886,0.64157673,-0.64914558,0.76066419,0,0)"
       height="3.8599277"
       width="3.6876113"
       y="104.0462"
       x="655.83801" />
    <rect
       id="use3889"
       ry="7.2081041"
       style="fill:#165016"
       rx="0"
       transform="matrix(0.77340922,0.63390707,-0.64153921,0.76709024,0,0)"
       height="3.8891804"
       width="3.7155578"
       y="92.297935"
       x="643.05017" />
    <rect
       id="use3891"
       ry="7.4380531"
       style="fill:#165016"
       rx="0"
       transform="matrix(0.82775957,0.56108296,-0.56925722,0.82215948,0,0)"
       height="4.0132499"
       width="3.83409"
       y="144.14056"
       x="674.29553" />
    <rect
       id="use3893"
       ry="7.4346819"
       style="fill:#165016"
       rx="0"
       transform="matrix(0.95308284,-0.30270961,0.31098871,0.95041361,0,0)"
       height="4.0114307"
       width="3.8378389"
       y="611.67993"
       x="302.33945" />
    <rect
       id="use3895"
       ry="7.4055543"
       style="fill:#165016"
       rx="0"
       transform="matrix(0.77512084,0.63181302,-0.63946221,0.76882253,0,0)"
       height="3.9957151"
       width="3.8173378"
       y="107.06897"
       x="679.21521" />
    <rect
       id="use3897"
       ry="7.3976068"
       style="fill:#165016"
       rx="0"
       transform="matrix(0.79644023,0.60471726,-0.61257904,0.79040934,0,0)"
       height="3.9914274"
       width="3.8132412"
       y="112.29811"
       x="668.91565" />
    <rect
       id="use3899"
       ry="7.4176226"
       style="fill:#165016"
       rx="0"
       transform="matrix(0.94483739,-0.32753978,0.33574622,0.94195248,0,0)"
       height="4.0022268"
       width="3.8290327"
       y="607.78009"
       x="182.88454" />
    <rect
       id="use3901"
       ry="7.4400287"
       style="fill:#165016"
       rx="0"
       transform="matrix(0.84080403,0.54133963,-0.5496441,0.83539893,0,0)"
       height="4.0143161"
       width="3.8351083"
       y="163.06805"
       x="681.87183" />
    <rect
       id="use3903"
       ry="7.4302983"
       style="fill:#165016"
       rx="0"
       transform="matrix(0.79624862,0.60496953,-0.61282939,0.79021525,0,0)"
       height="4.0090661"
       width="3.8300927"
       y="122.1956"
       x="681.92468" />
    <rect
       id="use3905"
       ry="7.3945117"
       style="fill:#165016"
       rx="0"
       transform="matrix(0.80585331,0.59211523,-0.60007089,0.79994682,0,0)"
       height="3.9897573"
       width="3.811646"
       y="118.86584"
       x="663.77905" />
    <rect
       id="use3907"
       ry="7.4346819"
       style="fill:#165016"
       rx="0"
       transform="matrix(0.96095604,-0.27670107,0.28504966,0.95851275,0,0)"
       height="4.0114307"
       width="3.8378389"
       y="610.013"
       x="322.78833" />
    <rect
       id="use3909"
       ry="7.4400287"
       style="fill:#165016"
       rx="0"
       transform="matrix(0.88560526,0.46443873,-0.47319089,0.88095992,0,0)"
       height="4.0143161"
       width="3.8351083"
       y="262.98602"
       x="566.33307" />
    <rect
       id="use3911"
       ry="7.252636"
       style="fill:#165016"
       rx="0"
       transform="matrix(0.77116147,0.6366396,-0.64424934,0.76481552,0,0)"
       height="3.9132073"
       width="3.7385132"
       y="88.22274"
       x="649.98859" />
    <rect
       id="use3913"
       ry="7.4319429"
       style="fill:#165016"
       rx="0"
       transform="matrix(0.84502011,0.53473453,-0.5430811,0.83968025,0,0)"
       height="4.009954"
       width="3.8309407"
       y="154.41353"
       x="656.44287" />
    <rect
       id="use3915"
       ry="7.4400253"
       style="fill:#165016"
       rx="0"
       transform="matrix(0.84346719,0.53718069,-0.54551175,0.83810318,0,0)"
       height="4.0143142"
       width="3.8351066"
       y="157.76561"
       x="670.95612" />
    <rect
       id="use3917"
       ry="7.4144788"
       style="fill:#165016"
       rx="0"
       transform="matrix(0.8339567,0.55182989,-0.56006598,0.82844801,0,0)"
       height="4.0005307"
       width="3.8219376"
       y="142.78708"
       x="654.45074" />
    <rect
       id="use3919"
       ry="7.2820339"
       style="fill:#165016"
       rx="0"
       transform="matrix(0.78734447,0.61651333,-0.6242844,0.78119715,0,0)"
       height="3.9290679"
       width="3.7536664"
       y="100.25436"
       x="644.1402" />
    <rect
       id="use3921"
       ry="7.3237157"
       style="fill:#165016"
       rx="0"
       transform="matrix(0.77136923,0.63638786,-0.64399966,0.76502577,0,0)"
       height="3.9515588"
       width="3.7751527"
       y="89.423294"
       x="662.57635" />
    <rect
       id="use3923"
       ry="7.3780246"
       style="fill:#165016"
       rx="0"
       transform="matrix(0.7742006,0.6329403,-0.64058034,0.76789115,0,0)"
       height="3.9808617"
       width="3.8031476"
       y="95.968155"
       x="672.66089" />
    <rect
       id="use3925"
       ry="7.43188"
       style="fill:#165016"
       rx="0"
       transform="matrix(0.95955703,-0.2815143,0.28985052,0.95707193,0,0)"
       height="4.0099192"
       width="3.8363926"
       y="602.61041"
       x="311.02948" />
    <rect
       id="use3927"
       ry="7.3167539"
       style="fill:#165016"
       rx="0"
       transform="matrix(0.77764593,0.62870248,-0.63637687,0.7713783,0,0)"
       height="3.9478023"
       width="3.7715633"
       y="118.94459"
       x="667.25098" />
    <rect
       id="use3929"
       ry="7.1998949"
       style="fill:#165016"
       rx="0"
       transform="matrix(0.76375604,0.645505,-0.65304091,0.75732263,0,0)"
       height="3.8847501"
       width="3.7113264"
       y="99.352058"
       x="659.72693" />
    <rect
       id="use3931"
       ry="7.2458882"
       style="fill:#165016"
       rx="0"
       transform="matrix(0.76353351,0.64576821,-0.65330192,0.75709749,0,0)"
       height="3.9095659"
       width="3.7350342"
       y="83.379822"
       x="654.24591" />
    <rect
       id="use3933"
       ry="7.1375403"
       style="fill:#165016"
       rx="0"
       transform="matrix(0.98854665,-0.1509156,0.15950891,0.98719649,0,0)"
       height="3.8511062"
       width="3.6844525"
       y="555.16638"
       x="349.95633" />
    <rect
       id="use3935"
       ry="7.4013052"
       style="fill:#165016"
       rx="0"
       transform="matrix(0.79691917,0.60408596,-0.61195252,0.7908945,0,0)"
       height="3.9934225"
       width="3.8151474"
       y="113.08124"
       x="669.74988" />
    <rect
       id="use3937"
       ry="7.375176"
       style="fill:#165016"
       rx="0"
       transform="matrix(0.78047906,0.62518192,-0.63288456,0.77424617,0,0)"
       height="3.9793246"
       width="3.8016787"
       y="99.122009"
       x="669.72632" />
    <rect
       id="use3939"
       ry="7.2112308"
       style="fill:#165016"
       rx="0"
       transform="matrix(0.98811493,-0.15371689,0.16230634,0.98674042,0,0)"
       height="3.8908665"
       width="3.7224917"
       y="563.37964"
       x="351.25491" />
    <rect
       id="use3941"
       ry="7.1290479"
       style="fill:#165016"
       rx="0"
       transform="matrix(0.82457932,0.56574637,-0.57388888,0.81893318,0,0)"
       height="3.8465242"
       width="3.6748064"
       y="185.14726"
       x="633.6615" />
    <rect
       id="use3943"
       ry="7.0936837"
       style="fill:#165016"
       rx="0"
       transform="matrix(0.76658206,0.64214636,-0.64971044,0.76018178,0,0)"
       height="3.8274431"
       width="3.6565776"
       y="130.51297"
       x="623.62006" />
    <rect
       id="use3945"
       ry="7.2767982"
       style="fill:#165016"
       rx="0"
       transform="matrix(0.85586065,0.51720648,-0.52566132,0.85069394,0,0)"
       height="3.926244"
       width="3.7509685"
       y="234.45049"
       x="623.84192" />
    <rect
       id="use3947"
       ry="7.049005"
       style="fill:#165016"
       rx="0"
       transform="matrix(0.98309684,-0.18308634,0.19163105,0.98146704,0,0)"
       height="3.8033361"
       width="3.6387496"
       y="550.75299"
       x="316.57544" />
    <rect
       id="use3949"
       ry="7.05862"
       style="fill:#165016"
       rx="0"
       transform="matrix(0.77019982,0.63780266,-0.64540282,0.76384239,0,0)"
       height="3.8085256"
       width="3.6385043"
       y="125.68559"
       x="606.65009" />
    <rect
       id="use3951"
       ry="7.0778761"
       style="fill:#165016"
       rx="0"
       transform="matrix(0.79173348,0.61086668,-0.61868153,0.78564188,0,0)"
       height="3.8189142"
       width="3.6484299"
       y="151.92665"
       x="626.2627" />
    <rect
       id="use3953"
       ry="7.1093645"
       style="fill:#165016"
       rx="0"
       transform="matrix(0.77664985,0.62993255,-0.63759701,0.77037008,0,0)"
       height="3.8359044"
       width="3.6646605"
       y="103.61275"
       x="634.76166" />
    <rect
       id="use3955"
       ry="7.0864496"
       style="fill:#165016"
       rx="0"
       transform="matrix(0.97880424,-0.20479809,0.21330465,0.97698574,0,0)"
       height="3.8235397"
       width="3.6580789"
       y="546.97626"
       x="273.04041" />
    <rect
       id="use3957"
       ry="7.0310135"
       style="fill:#165016"
       rx="0"
       transform="matrix(0.77644817,0.63018111,-0.63784355,0.77016596,0,0)"
       height="3.7936294"
       width="3.6242738"
       y="126.36781"
       x="616.00293" />
    <rect
       id="use3959"
       ry="7.0640731"
       style="fill:#165016"
       rx="0"
       transform="matrix(0.75860463,0.65155124,-0.65903585,0.75211153,0,0)"
       height="3.8114679"
       width="3.6413147"
       y="120.30506"
       x="621.55853" />
    <rect
       id="use3961"
       ry="7.0818653"
       style="fill:#165016"
       rx="0"
       transform="matrix(0.79234612,0.61007182,-0.61789276,0.78626239,0,0)"
       height="3.8210671"
       width="3.6504858"
       y="141.15634"
       x="602.12524" />
    <rect
       id="use3963"
       ry="7.0280075"
       style="fill:#165016"
       rx="0"
       transform="matrix(0.77280182,0.63464742,-0.64227352,0.76647552,0,0)"
       height="3.7920077"
       width="3.6227243"
       y="109.13518"
       x="638.26196" />
    <rect
       id="use3965"
       ry="7.2865977"
       style="fill:#165016"
       rx="0"
       transform="matrix(0.95059887,-0.31042196,0.31867914,0.94786265,0,0)"
       height="3.931531"
       width="3.7613969"
       y="596.23425"
       x="218.84247" />
    <rect
       id="use3967"
       ry="7.37817"
       style="fill:#165016"
       rx="0"
       transform="matrix(0.86369962,0.50400691,-0.51254005,0.85866332,0,0)"
       height="3.9809401"
       width="3.8032219"
       y="204.82349"
       x="640.08612" />
    <rect
       id="use3969"
       ry="7.075397"
       style="fill:#165016"
       rx="0"
       transform="matrix(0.78173219,0.62361429,-0.63132944,0.77551476,0,0)"
       height="3.8175762"
       width="3.6471512"
       y="124.53841"
       x="646.8678" />
    <rect
       id="use3971"
       ry="7.0995984"
       style="fill:#165016"
       rx="0"
       transform="matrix(0.97439088,-0.22486086,0.23332823,0.97239803,0,0)"
       height="3.8306348"
       width="3.6648674"
       y="552.70917"
       x="270.30692" />
    <rect
       id="use3973"
       ry="7.0844584"
       style="fill:#165016"
       rx="0"
       transform="matrix(0.77307061,0.63431998,-0.64194875,0.76674755,0,0)"
       height="3.8224657"
       width="3.6518226"
       y="102.29573"
       x="636.56274" />
    <rect
       id="use3975"
       ry="7.189208"
       style="fill:#165016"
       rx="0"
       transform="matrix(0.83865012,0.54467052,-0.55295345,0.83321215,0,0)"
       height="3.878984"
       width="3.7058179"
       y="179.89305"
       x="583.17914" />
    <rect
       id="use3977"
       ry="7.4122739"
       style="fill:#165016"
       rx="0"
       transform="matrix(0.88136853,0.47242938,-0.48113915,0.87664424,0,0)"
       height="3.9993412"
       width="3.8208017"
       y="233.53484"
       x="599.11627" />
    <rect
       id="use3979"
       ry="7.1940675"
       style="fill:#165016"
       rx="0"
       transform="matrix(0.9749029,-0.22263048,0.23110239,0.97292943,0,0)"
       height="3.8816061"
       width="3.7136316"
       y="553.69324"
       x="301.50299" />
    <rect
       id="use3981"
       ry="7.0652833"
       style="fill:#165016"
       rx="0"
       transform="matrix(0.7708188,0.63705446,-0.64466078,0.76446875,0,0)"
       height="3.8121202"
       width="3.6419389"
       y="102.18083"
       x="638.49896" />
    <rect
       id="use3983"
       ry="7.1326938"
       style="fill:#165016"
       rx="0"
       transform="matrix(0.76269406,0.64675944,-0.65428479,0.75624825,0,0)"
       height="3.8484914"
       width="3.6766863"
       y="89.475754"
       x="646.74329" />
    <rect
       id="use3985"
       ry="7.0404711"
       style="fill:#165016"
       rx="0"
       transform="matrix(0.9886327,-0.15035088,0.15894497,0.98728744,0,0)"
       height="3.7987316"
       width="3.6343443"
       y="541.81006"
       x="305.01883" />
    <rect
       id="use3987"
       ry="7.2127342"
       style="fill:#165016"
       rx="0"
       transform="matrix(0.82277229,0.56837115,-0.5764956,0.81710025,0,0)"
       height="3.8916774"
       width="3.7179446"
       y="149.99362"
       x="607.97546" />
    <rect
       id="use3989"
       ry="7.2495036"
       style="fill:#165016"
       rx="0"
       transform="matrix(0.85873404,0.51242156,-0.52090509,0.8536146,0,0)"
       height="3.9115171"
       width="3.7368982"
       y="202.45389"
       x="568.37744" />
    <rect
       id="use3991"
       ry="7.2027421"
       style="fill:#165016"
       rx="0"
       transform="matrix(0.78303611,0.62197624,-0.62970437,0.77683487,0,0)"
       height="3.8862865"
       width="3.7127943"
       y="102.01993"
       x="636.21948" />
    <rect
       id="use3993"
       ry="7.0793009"
       style="fill:#165016"
       rx="0"
       transform="matrix(0.99038704,-0.13832393,0.14693377,0.98914633,0,0)"
       height="3.8196833"
       width="3.6543882"
       y="546.52521"
       x="309.04156" />
    <rect
       id="use3995"
       ry="7.3442736"
       style="fill:#165016"
       rx="0"
       transform="matrix(0.85608899,0.51682844,-0.52528556,0.85092601,0,0)"
       height="3.9626508"
       width="3.7857492"
       y="182.86084"
       x="616.59766" />
    <path
       id="use3997"
       d="m 335.46036,492.23061 -5.89124,4.86816 -2.43694,-2.75255 -2.35229,1.7 c 0,0 -3.67178,-6.2032 0.59628,-9.88455 3.98937,-3.441 9.69474,1.24758 9.69474,1.24758 l -1.98579,2.28535 z"
       sodipodi:nodetypes="ccccsccc"
       style="fill:#6c5d53;stroke:#000000;stroke-width:1.93227696;stroke-linecap:round;stroke-linejoin:round"
       inkscape:connector-curvature="0" />
    <path
       id="use3999"
       d="m 355.47976,470.59904 7.45484,-2.31545 1.2353,3.54606 2.88209,-0.69394 c 0,0 1.06352,7.28566 -4.39683,9.10904 -5.10414,1.70447 -8.67714,-4.93857 -8.67714,-4.93857 l 2.76275,-1.3894 z"
       sodipodi:nodetypes="ccccsccc"
       style="fill:#6c5d53;stroke:#000000;stroke-width:1.97368407;stroke-linecap:round;stroke-linejoin:round"
       inkscape:connector-curvature="0" />
    <path
       id="use4001"
       d="m 367.8739,495.99221 -6.8031,3.63553 -1.85925,-3.21111 -2.66755,1.21033 c 0,0 -2.38917,-6.87207 2.57007,-9.65861 4.63571,-2.60475 9.34033,3.17627 9.34033,3.17627 l -2.42228,1.86294 z"
       sodipodi:nodetypes="ccccsccc"
       style="fill:#6c5d53;stroke:#000000;stroke-width:1.95026445;stroke-linecap:round;stroke-linejoin:round"
       inkscape:connector-curvature="0" />
    <path
       id="use4003"
       d="m 383.5174,506.48627 7.47236,1.898 1.03488,-3.5613 2.87842,0.53541 c 0,0 0.6721,-7.24077 -4.80767,-8.75661 -5.12232,-1.41703 -8.3026,5.31967 -8.3026,5.31967 l 2.7967,1.22746 z"
       sodipodi:nodetypes="ccccsccc"
       style="fill:#6c5d53;stroke:#000000;stroke-width:1.94927645;stroke-linecap:round;stroke-linejoin:round"
       inkscape:connector-curvature="0" />
    <path
       id="use4005"
       d="m 355.16121,519.57047 7.55033,2.35736 1.25703,-3.59129 2.91924,0.70759 c 0,0 1.08817,-7.3808 -4.44144,-9.23654 -5.16937,-1.7347 -8.79971,4.99112 -8.79971,4.99112 l 2.79731,1.412 z"
       sodipodi:nodetypes="ccccsccc"
       style="fill:#6c5d53;stroke:#000000;stroke-width:1.99987602;stroke-linecap:round;stroke-linejoin:round"
       inkscape:connector-curvature="0" />
    <path
       id="use4007"
       d="m 428.24133,495.41837 7.48233,1.79754 0.98676,-3.56777 2.87977,0.49679 c 0,0 0.57707,-7.2353 -4.91163,-8.67728 -5.13062,-1.34796 -8.21753,5.41679 -8.21753,5.41679 l 2.80716,1.18883 z"
       sodipodi:nodetypes="ccccsccc"
       style="fill:#6c5d53;stroke:#000000;stroke-width:1.94563544;stroke-linecap:round;stroke-linejoin:round"
       inkscape:connector-curvature="0" />
    <path
       id="use4009"
       d="m 372.16209,502.41937 -7.27683,-2.81259 -1.47139,3.45233 -2.82688,-0.88667 c 0,0 -1.55292,7.19276 3.7684,9.37989 4.97428,2.04454 8.98587,-4.33781 8.98587,-4.33781 l -2.66081,-1.57213 z"
       sodipodi:nodetypes="ccccsccc"
       style="fill:#6c5d53;stroke:#000000;stroke-width:1.97249854;stroke-linecap:round;stroke-linejoin:round"
       inkscape:connector-curvature="0" />
    <path
       id="use4011"
       d="m 409.59401,485.71385 -7.42581,-1.58011 -0.88129,3.54419 -2.85299,-0.416 c 0,0 -0.38273,7.15072 5.06765,8.4315 5.09489,1.19724 7.9651,-5.55405 7.9651,-5.55405 l -2.79919,-1.10015 z"
       sodipodi:nodetypes="ccccsccc"
       style="fill:#6c5d53;stroke:#000000;stroke-width:1.91954923;stroke-linecap:round;stroke-linejoin:round"
       inkscape:connector-curvature="0" />
    <path
       id="use4013"
       d="m 397.18861,524.55975 7.55361,1.4633 0.82723,-3.60751 2.89849,0.36863 c 0,0 0.25515,-7.25269 -5.29128,-8.44929 -5.18467,-1.11861 -7.96765,5.77545 -7.96765,5.77545 l 2.85671,1.06287 z"
       sodipodi:nodetypes="ccccsccc"
       style="fill:#6c5d53;stroke:#000000;stroke-width:1.94533074;stroke-linecap:round;stroke-linejoin:round"
       inkscape:connector-curvature="0" />
    <path
       id="use4015"
       d="m 412.72729,515.53548 7.60683,1.11188 0.65914,-3.63887 2.91003,0.23415 c 0,0 -0.0801,-7.2507 -5.67132,-8.189 -5.22645,-0.87715 -7.68593,6.13231 -7.68593,6.13231 l 2.90037,0.92893 z"
       sodipodi:nodetypes="ccccsccc"
       style="fill:#6c5d53;stroke:#000000;stroke-width:1.94371796;stroke-linecap:round;stroke-linejoin:round"
       inkscape:connector-curvature="0" />
    <path
       id="use4017"
       d="m 389.34292,483.14564 7.58538,1.27753 0.73845,-3.62584 2.90602,0.29727 c 0,0 0.0775,-7.25507 -5.49545,-8.31525 -5.20925,-0.99098 -7.82189,5.96758 -7.82189,5.96758 l 2.88122,0.99227 z"
       sodipodi:nodetypes="ccccsccc"
       style="fill:#6c5d53;stroke:#000000;stroke-width:1.94487691;stroke-linecap:round;stroke-linejoin:round"
       inkscape:connector-curvature="0" />
    <path
       id="use4019"
       d="m 428.35636,475.69227 7.76192,1.31899 0.76139,-3.70998 2.9739,0.30884 c 0,0 0.0904,-7.42557 -5.6119,-8.51925 -5.33028,-1.02237 -8.01515,6.09586 -8.01515,6.09586 l 2.94751,1.02004 z"
       sodipodi:nodetypes="ccccsccc"
       style="fill:#6c5d53;stroke:#000000;stroke-width:1.99063218;stroke-linecap:round;stroke-linejoin:round"
       inkscape:connector-curvature="0" />
    <path
       id="use4021"
       d="m 451.1094,517.04273 7.81547,1.78033 0.98392,-3.72827 3.00556,0.48237 c 0,0 0.51205,-7.54318 -5.22251,-8.97763 -5.36055,-1.34088 -8.49258,5.74302 -8.49258,5.74302 l 2.93847,1.20374 z"
       sodipodi:nodetypes="ccccsccc"
       style="fill:#6c5d53;stroke:#000000;stroke-width:2.02666163;stroke-linecap:round;stroke-linejoin:round"
       inkscape:connector-curvature="0" />
    <path
       id="use4023"
       d="m 467.76781,509.46254 7.9599,1.27162 0.74172,-3.80598 3.04775,0.28595 c 0,0 0.0174,-7.60307 -5.83204,-8.66474 -5.46742,-0.9924 -8.14368,6.32239 -8.14368,6.32239 l 3.02796,1.01433 z"
       sodipodi:nodetypes="ccccsccc"
       style="fill:#6c5d53;stroke:#000000;stroke-width:2.0380652;stroke-linecap:round;stroke-linejoin:round"
       inkscape:connector-curvature="0" />
    <path
       id="use4025"
       d="m 442.01794,486.33232 7.71604,1.67636 0.93231,-3.68214 2.96539,0.44533 c 0,0 0.42987,-7.43529 -5.23307,-8.79154 -5.29351,-1.26782 -8.3086,5.74091 -8.3086,5.74091 l 2.90637,1.15667 z"
       sodipodi:nodetypes="ccccsccc"
       style="fill:#6c5d53;stroke:#000000;stroke-width:1.99640727;stroke-linecap:round;stroke-linejoin:round"
       inkscape:connector-curvature="0" />
    <path
       id="use4027"
       d="m 425.45605,511.20142 7.57734,1.53391 0.86154,-3.6178 2.9093,0.39455 c 0,0 0.31743,-7.28515 -5.24546,-8.53417 -5.20002,-1.16754 -8.05431,5.73602 -8.05431,5.73602 l 2.86142,1.0919 z"
       sodipodi:nodetypes="ccccsccc"
       style="fill:#6c5d53;stroke:#000000;stroke-width:1.95468998;stroke-linecap:round;stroke-linejoin:round"
       inkscape:connector-curvature="0" />
    <path
       id="use4029"
       d="m 473.14013,480.99096 8.04161,-0.64541 0.442,3.85552 3.0633,-0.047 c 0,0 -0.5785,7.58734 -6.4975,8.18855 -5.5329,0.56198 -7.63028,-6.94595 -7.63028,-6.94595 l 3.10061,-0.77494 z"
       sodipodi:nodetypes="ccccsccc"
       style="fill:#6c5d53;stroke:#000000;stroke-width:2.0397439;stroke-linecap:round;stroke-linejoin:round"
       inkscape:connector-curvature="0" />
    <path
       id="use4031"
       d="m 435.61843,478.45812 7.76615,1.39982 0.80043,-3.71067 2.97749,0.33953 c 0,0 0.16532,-7.44137 -5.53875,-8.59493 -5.33201,-1.07832 -8.09454,6.02888 -8.09454,6.02888 l 2.94387,1.05204 z"
       sodipodi:nodetypes="ccccsccc"
       style="fill:#6c5d53;stroke:#000000;stroke-width:1.99520957;stroke-linecap:round;stroke-linejoin:round"
       inkscape:connector-curvature="0" />
    <ellipse
       transform="matrix(-0.7735118,0.13629342,0.13629342,0.7735118,498.11468,131.6062)"
       sodipodi:ry="5.0074744"
       sodipodi:rx="9.7847548"
       sodipodi:cy="468.99997"
       sodipodi:cx="163.46005"
       d="m 173.24481,468.99997 c 0,2.76555 -4.38079,5.00747 -9.78476,5.00747 -5.40397,0 -9.78475,-2.24192 -9.78475,-5.00747 0,-2.76555 4.38078,-5.00747 9.78475,-5.00747 5.40397,0 9.78476,2.24192 9.78476,5.00747 z"
       ry="5.0074744"
       rx="9.7847548"
       cy="468.99997"
       cx="163.46005"
       style="fill:#800000;stroke:#000000;stroke-width:2.56689382;stroke-linecap:round;stroke-linejoin:round"
       id="use4063" />
    <ellipse
       transform="matrix(0.69463995,0.33497974,-0.33497974,0.69463995,402.53943,101.47945)"
       sodipodi:ry="5.0074744"
       sodipodi:rx="9.7847548"
       sodipodi:cy="468.99997"
       sodipodi:cx="163.46005"
       d="m 173.24481,468.99997 c 0,2.76555 -4.38079,5.00747 -9.78476,5.00747 -5.40397,0 -9.78475,-2.24192 -9.78475,-5.00747 0,-2.76555 4.38078,-5.00747 9.78475,-5.00747 5.40397,0 9.78476,2.24192 9.78476,5.00747 z"
       ry="5.0074744"
       rx="9.7847548"
       cy="468.99997"
       cx="163.46005"
       style="fill:#800000;stroke:#000000;stroke-width:2.56689382;stroke-linecap:round;stroke-linejoin:round"
       id="use4065" />
    <ellipse
       transform="matrix(-0.75214496,0.17732108,0.17732108,0.75214496,476.02944,120.22511)"
       sodipodi:ry="5.0074744"
       sodipodi:rx="9.7847548"
       sodipodi:cy="468.99997"
       sodipodi:cx="163.46005"
       d="m 173.24481,468.99997 c 0,2.76555 -4.38079,5.00747 -9.78476,5.00747 -5.40397,0 -9.78475,-2.24192 -9.78475,-5.00747 0,-2.76555 4.38078,-5.00747 9.78475,-5.00747 5.40397,0 9.78476,2.24192 9.78476,5.00747 z"
       ry="5.0074744"
       rx="9.7847548"
       cy="468.99997"
       cx="163.46005"
       style="fill:#800000;stroke:#000000;stroke-width:2.56689382;stroke-linecap:round;stroke-linejoin:round"
       id="use4067" />
    <ellipse
       transform="matrix(-0.76508881,0.09655168,0.09655168,0.76508881,494.46714,139.20385)"
       sodipodi:ry="5.0074744"
       sodipodi:rx="9.7847548"
       sodipodi:cy="468.99997"
       sodipodi:cx="163.46005"
       d="m 173.24481,468.99997 c 0,2.76555 -4.38079,5.00747 -9.78476,5.00747 -5.40397,0 -9.78475,-2.24192 -9.78475,-5.00747 0,-2.76555 4.38078,-5.00747 9.78475,-5.00747 5.40397,0 9.78476,2.24192 9.78476,5.00747 z"
       ry="5.0074744"
       rx="9.7847548"
       cy="468.99997"
       cx="163.46005"
       style="fill:#800000;stroke:#000000;stroke-width:2.56689382;stroke-linecap:round;stroke-linejoin:round"
       id="use4069" />
    <ellipse
       transform="matrix(0.7727088,-0.13935899,-0.13935899,-0.7727088,377.91145,858.46094)"
       sodipodi:ry="5.0074744"
       sodipodi:rx="9.7847548"
       sodipodi:cy="468.99997"
       sodipodi:cx="163.46005"
       d="m 173.24481,468.99997 c 0,2.76555 -4.38079,5.00747 -9.78476,5.00747 -5.40397,0 -9.78475,-2.24192 -9.78475,-5.00747 0,-2.76555 4.38078,-5.00747 9.78475,-5.00747 5.40397,0 9.78476,2.24192 9.78476,5.00747 z"
       ry="5.0074744"
       rx="9.7847548"
       cy="468.99997"
       cx="163.46005"
       style="fill:#800000;stroke:#000000;stroke-width:2.56689382;stroke-linecap:round;stroke-linejoin:round"
       id="use4071" />
    <ellipse
       transform="matrix(0.77886557,0.16243579,-0.16243579,0.77886557,408.54444,103.5775)"
       sodipodi:ry="5.0074744"
       sodipodi:rx="9.7847548"
       sodipodi:cy="468.99997"
       sodipodi:cx="163.46005"
       d="m 173.24481,468.99997 c 0,2.76555 -4.38079,5.00747 -9.78476,5.00747 -5.40397,0 -9.78475,-2.24192 -9.78475,-5.00747 0,-2.76555 4.38078,-5.00747 9.78475,-5.00747 5.40397,0 9.78476,2.24192 9.78476,5.00747 z"
       ry="5.0074744"
       rx="9.7847548"
       cy="468.99997"
       cx="163.46005"
       style="fill:#800000;stroke:#000000;stroke-width:2.56689382;stroke-linecap:round;stroke-linejoin:round"
       id="use4073" />
    <ellipse
       transform="matrix(0.78135203,0.17071257,-0.17071257,0.78135203,411.37038,119.35972)"
       sodipodi:ry="5.0074744"
       sodipodi:rx="9.7847548"
       sodipodi:cy="468.99997"
       sodipodi:cx="163.46005"
       d="m 173.24481,468.99997 c 0,2.76555 -4.38079,5.00747 -9.78476,5.00747 -5.40397,0 -9.78475,-2.24192 -9.78475,-5.00747 0,-2.76555 4.38078,-5.00747 9.78475,-5.00747 5.40397,0 9.78476,2.24192 9.78476,5.00747 z"
       ry="5.0074744"
       rx="9.7847548"
       cy="468.99997"
       cx="163.46005"
       style="fill:#800000;stroke:#000000;stroke-width:2.56689382;stroke-linecap:round;stroke-linejoin:round"
       id="use4075" />
    <ellipse
       transform="matrix(0.7691027,0.13680801,-0.13680801,0.7691027,329.68062,130.98041)"
       sodipodi:ry="5.0074744"
       sodipodi:rx="9.7847548"
       sodipodi:cy="468.99997"
       sodipodi:cx="163.46005"
       d="m 173.24481,468.99997 c 0,2.76555 -4.38079,5.00747 -9.78476,5.00747 -5.40397,0 -9.78475,-2.24192 -9.78475,-5.00747 0,-2.76555 4.38078,-5.00747 9.78475,-5.00747 5.40397,0 9.78476,2.24192 9.78476,5.00747 z"
       ry="5.0074744"
       rx="9.7847548"
       cy="468.99997"
       cx="163.46005"
       style="fill:#800000;stroke:#000000;stroke-width:2.56689382;stroke-linecap:round;stroke-linejoin:round"
       id="use4077" />
    <ellipse
       transform="matrix(0.76924275,0.09886547,-0.09886547,0.76924275,325.67095,92.916364)"
       sodipodi:ry="5.0074744"
       sodipodi:rx="9.7847548"
       sodipodi:cy="468.99997"
       sodipodi:cx="163.46005"
       d="m 173.24481,468.99997 c 0,2.76555 -4.38079,5.00747 -9.78476,5.00747 -5.40397,0 -9.78475,-2.24192 -9.78475,-5.00747 0,-2.76555 4.38078,-5.00747 9.78475,-5.00747 5.40397,0 9.78476,2.24192 9.78476,5.00747 z"
       ry="5.0074744"
       rx="9.7847548"
       cy="468.99997"
       cx="163.46005"
       style="fill:#800000;stroke:#000000;stroke-width:2.56689382;stroke-linecap:round;stroke-linejoin:round"
       id="use4089" />
    <ellipse
       transform="matrix(0.76060982,0.1317746,-0.1317746,0.76060982,355.29839,97.353026)"
       sodipodi:ry="5.0074744"
       sodipodi:rx="9.7847548"
       sodipodi:cy="468.99997"
       sodipodi:cx="163.46005"
       d="m 173.24481,468.99997 c 0,2.76555 -4.38079,5.00747 -9.78476,5.00747 -5.40397,0 -9.78475,-2.24192 -9.78475,-5.00747 0,-2.76555 4.38078,-5.00747 9.78475,-5.00747 5.40397,0 9.78476,2.24192 9.78476,5.00747 z"
       ry="5.0074744"
       rx="9.7847548"
       cy="468.99997"
       cx="163.46005"
       style="fill:#800000;stroke:#000000;stroke-width:2.56689382;stroke-linecap:round;stroke-linejoin:round"
       id="use4091" />
    <ellipse
       transform="matrix(-0.73515158,0.20225314,0.20225314,0.73515158,407.45618,113.83663)"
       sodipodi:ry="5.0074744"
       sodipodi:rx="9.7847548"
       sodipodi:cy="468.99997"
       sodipodi:cx="163.46005"
       d="m 173.24481,468.99997 c 0,2.76555 -4.38079,5.00747 -9.78476,5.00747 -5.40397,0 -9.78475,-2.24192 -9.78475,-5.00747 0,-2.76555 4.38078,-5.00747 9.78475,-5.00747 5.40397,0 9.78476,2.24192 9.78476,5.00747 z"
       ry="5.0074744"
       rx="9.7847548"
       cy="468.99997"
       cx="163.46005"
       style="fill:#800000;stroke:#000000;stroke-width:2.56689382;stroke-linecap:round;stroke-linejoin:round"
       id="use4093" />
    <ellipse
       transform="matrix(0.56420063,0.5189651,-0.5189651,0.56420063,493.82622,140.25936)"
       sodipodi:ry="5.0074744"
       sodipodi:rx="9.7847548"
       sodipodi:cy="468.99997"
       sodipodi:cx="163.46005"
       d="m 173.24481,468.99997 c 0,2.76555 -4.38079,5.00747 -9.78476,5.00747 -5.40397,0 -9.78475,-2.24192 -9.78475,-5.00747 0,-2.76555 4.38078,-5.00747 9.78475,-5.00747 5.40397,0 9.78476,2.24192 9.78476,5.00747 z"
       ry="5.0074744"
       rx="9.7847548"
       cy="468.99997"
       cx="163.46005"
       style="fill:#800000;stroke:#000000;stroke-width:2.56689382;stroke-linecap:round;stroke-linejoin:round"
       id="use4095" />
    <ellipse
       transform="matrix(0.74041503,0.15218376,-0.15218376,0.74041503,364.37263,124.61876)"
       sodipodi:ry="5.0074744"
       sodipodi:rx="9.7847548"
       sodipodi:cy="468.99997"
       sodipodi:cx="163.46005"
       d="m 173.24481,468.99997 c 0,2.76555 -4.38079,5.00747 -9.78476,5.00747 -5.40397,0 -9.78475,-2.24192 -9.78475,-5.00747 0,-2.76555 4.38078,-5.00747 9.78475,-5.00747 5.40397,0 9.78476,2.24192 9.78476,5.00747 z"
       ry="5.0074744"
       rx="9.7847548"
       cy="468.99997"
       cx="163.46005"
       style="fill:#800000;stroke:#000000;stroke-width:2.56689382;stroke-linecap:round;stroke-linejoin:round"
       id="use4107" />
    <ellipse
       transform="matrix(0.75328311,0.1379519,-0.1379519,0.75328311,327.62743,103.55158)"
       sodipodi:ry="5.0074744"
       sodipodi:rx="9.7847548"
       sodipodi:cy="468.99997"
       sodipodi:cx="163.46005"
       d="m 173.24481,468.99997 c 0,2.76555 -4.38079,5.00747 -9.78476,5.00747 -5.40397,0 -9.78475,-2.24192 -9.78475,-5.00747 0,-2.76555 4.38078,-5.00747 9.78475,-5.00747 5.40397,0 9.78476,2.24192 9.78476,5.00747 z"
       ry="5.0074744"
       rx="9.7847548"
       cy="468.99997"
       cx="163.46005"
       style="fill:#800000;stroke:#000000;stroke-width:2.56689382;stroke-linecap:round;stroke-linejoin:round"
       id="use4109" />
    <ellipse
       transform="matrix(0.60060592,0.48915706,-0.48915706,0.60060592,478.1669,140.04115)"
       sodipodi:ry="5.0074744"
       sodipodi:rx="9.7847548"
       sodipodi:cy="468.99997"
       sodipodi:cx="163.46005"
       d="m 173.24481,468.99997 c 0,2.76555 -4.38079,5.00747 -9.78476,5.00747 -5.40397,0 -9.78475,-2.24192 -9.78475,-5.00747 0,-2.76555 4.38078,-5.00747 9.78475,-5.00747 5.40397,0 9.78476,2.24192 9.78476,5.00747 z"
       ry="5.0074744"
       rx="9.7847548"
       cy="468.99997"
       cx="163.46005"
       style="fill:#800000;stroke:#000000;stroke-width:2.56689382;stroke-linecap:round;stroke-linejoin:round"
       id="use4111" />
    <ellipse
       transform="matrix(-0.76158008,0.13108472,0.13108472,0.76158008,435.98091,95.168128)"
       sodipodi:ry="5.0074744"
       sodipodi:rx="9.7847548"
       sodipodi:cy="468.99997"
       sodipodi:cx="163.46005"
       d="m 173.24481,468.99997 c 0,2.76555 -4.38079,5.00747 -9.78476,5.00747 -5.40397,0 -9.78475,-2.24192 -9.78475,-5.00747 0,-2.76555 4.38078,-5.00747 9.78475,-5.00747 5.40397,0 9.78476,2.24192 9.78476,5.00747 z"
       ry="5.0074744"
       rx="9.7847548"
       cy="468.99997"
       cx="163.46005"
       style="fill:#800000;stroke:#000000;stroke-width:2.56689382;stroke-linecap:round;stroke-linejoin:round"
       id="use4113" />
    <ellipse
       transform="matrix(0.74259843,0.16273394,-0.16273394,0.74259843,375.39739,111.43982)"
       sodipodi:ry="5.0074744"
       sodipodi:rx="9.7847548"
       sodipodi:cy="468.99997"
       sodipodi:cx="163.46005"
       d="m 173.24481,468.99997 c 0,2.76555 -4.38079,5.00747 -9.78476,5.00747 -5.40397,0 -9.78475,-2.24192 -9.78475,-5.00747 0,-2.76555 4.38078,-5.00747 9.78475,-5.00747 5.40397,0 9.78476,2.24192 9.78476,5.00747 z"
       ry="5.0074744"
       rx="9.7847548"
       cy="468.99997"
       cx="163.46005"
       style="fill:#800000;stroke:#000000;stroke-width:2.56689382;stroke-linecap:round;stroke-linejoin:round"
       id="use4115" />
  </g>
  <metadata
     id="metadata50">
    <rdf:RDF>
      <cc:Work>
        <dc:format>image/svg+xml</dc:format>
        <dc:type
           rdf:resource="http://purl.org/dc/dcmitype/StillImage" />
        <cc:license
           rdf:resource="http://creativecommons.org/licenses/publicdomain/" />
        <dc:publisher>
          <cc:Agent
             rdf:about="http://openclipart.org/">
            <dc:title>Openclipart</dc:title>
          </cc:Agent>
        </dc:publisher>
        <dc:title>Mushroom Pizza</dc:title>
      </cc:Work>
      <cc:License
         rdf:about="http://creativecommons.org/licenses/publicdomain/">
        <cc:permits
           rdf:resource="http://creativecommons.org/ns#Reproduction" />
        <cc:permits
           rdf:resource="http://creativecommons.org/ns#Distribution" />
        <cc:permits
           rdf:resource="http://creativecommons.org/ns#DerivativeWorks" />
      </cc:License>
    </rdf:RDF>
  </metadata>
</svg>
