<?xml version="1.0" encoding="UTF-8" standalone="no"?>
<svg id="svg2" xmlns:rdf="http://www.w3.org/1999/02/22-rdf-syntax-ns#" xmlns="http://www.w3.org/2000/svg" height="3746.2pt" width="3595.4pt" version="1.1" xmlns:cc="http://creativecommons.org/ns#" xmlns:dc="http://purl.org/dc/elements/1.1/" viewBox="0 0 3595.3921 3746.2417">
<g id="g4203" transform="matrix(.97034 -.24174 .24174 .97034 -4935.6 1755.1)">
<path id="path4" d="m7338.4 19.767c-3.4442-0.08682-6.8048 1.4969-7.8407 5.0922-11.66 59.75-30.7 117.68-46.22 176.48-17.45 67.81-30.79 138.87-17.33 208.71 5.8 28.37 23.639 52.139 42.909 73.009 25.2 27.01 40.801 63.201 41.761 100.21-0.28 32.68-8.0009 66.67-21.811 95.67-109.27-39.51-219.87-76.011-330.59-111.38-9.12-5.02-17.631 3.35-19.431 11.8-0.53 14.64 15.301 17.681 26.111 20.661 104.95 33.84 209.92 68.06 313.05 107.18-15.2 37.45-26.79 77.481-51.98 109.84-25.61 32.05-66.901 42.569-103.99 55.009-27.58 9.21-58.45 2.9006-84.97 15.991-22.07 10.92-32.03 37.789-28.65 61.259 3.19 22.28 16.781 41.39 31.861 57.4 33.95 33.79 76.719 57.01 120.51 75.5 46.01 18.71 94.51 32.919 144.3 35.759 39.58 1.18 83.64-17.1 102.08-53.75 11.46-32.67-15.94-60.36-37.2-81.23-27.39-21.55-56.599-41.31-88.439-55.67-9.07-3.23-16.68 12.41-6.6203 15.8 22.52 11.27 44.92 30.13 48.88 56.4 5.1 31.66-17.72 60.781-45.7 72.661-36.08 17.8-77.29 4.6503-110.13-14.03-14.89-7.06-27.731-17.771-42.961-24.141-14.58-6.91-30.69-15.62-36.5-31.72-3.3-13.21 4.9612-25.169 13.781-33.989 30.28-27.19 68.449-42.86 105.42-58.65 5.29-2.92 12.481-0.98032 16.131-6.8203 21.51-63.14 54.02-121.87 77.98-184.06 0.82-3.22 4.6-0.89907 6.65-0.28907 39.71 15.79 79.939 30.57 118.39 49.28 4.36 0.18 8.2006 2.5197 12.191 4.1297 126.38 55.57 248.96 121.02 360.81 202.27 39.88 28.39 76.981 60.85 109.94 97.05 69.56 74.6 130.43 163.92 147.69 266.31 10.92 66.46-9.85 138.82-60.55 184.44-37.23 37.24-85.981 59.499-134.23 78.759-233.89 92.5-491.79 101.69-739.45 79.02-290.7-28.04-574.83-103.05-850.52-197.47-176.57-60.85-350.2-130-521.38-204.61-124.88-57.17-251.13-119.98-351.11-215.9-68.03-61.37-124.52-142.77-137.87-235.11-7.5-57.62 11.76-116.99 49.35-160.9 38.84-46.85 92-79.631 147.28-103.73 91.07-40.06 188.21-64.85 286.2-80.8 155.48-24.36 313.73-27.849 470.66-21.489 94.7 0.74 189.95 7.4403 284.87 11.47 249.18 13.54 500.05 34.529 741.69 100.44 15.07 2.13 21.18-23.89 5.9203-28.07-234.5-64.69-477.1-96.13-719.7-109.18-207.5-9.99-415.5-6.94-622.7 7.6-16.3 0.8-35.29-1.4806-49.9 1.0094 8.01 0.74 19.9-1.4494 25.7 0.84062-140.03 10.23-282.08 25.82-414.41 75.43-88.87 33.75-178.31 89.061-217.16 179.84-28.67 66.01-26.649 142.24-5.1891 210.04 13.97 40.33 36.749 77.591 60.209 112.16 144.67 121.72 306.48 221.67 472.82 310.78 142.24 57.03 288.18 104.77 434.9 148.99 114.61 35.89 229.33 71.64 345 104.03 280.06 78.78 569.14 139.67 861.5 131.29 145-4.24 292.02-17.829 430.21-64.809 90.96-31.99 183.61-82.5 230.36-170.67 42.33-83.79 19.819-183.56-21.791-263.09-36.83-71.15-87.36-134.62-144.97-190.03-170.5-153.5-379.8-255.26-592.5-336.5-2.34-1.46-7.5703-1.28-6.6703-5.1 16.36-47.13 28.95-97.31 22.12-147.52-1.61-10.19-3.0303-20.529-6.4703-30.289-2.7-8.27-15.751-4.4903-18.341-12.82-18.38-45.23-47.259-86.181-58.839-134.09-11.67-46.86-3.4809-95.879 8.1391-141.89 8.82-32.74 16.501-65.821 26.741-98.161 4.97-12.19 8.0597-27.16 20.13-34.38 11.27-1.68 16.97 10.58 22.43 18 22.66 36.52 42.62 76.971 79.25 101.74 31.89 19.85 72 30.31 108.7 18.13 26.71-9.34 49.521-26.99 70.341-45.72 3.82-4.44 1.57-11.92-4.1-13.67-72.72 14.47-159.44 18.271-219.97-32.709-31.49-27.13-49.57-66.711-58-106.81-0.8553-3.8994-4.8654-6.1438-8.7687-6.2422zm40.898 12.523c-8.96 1.4-9.33 16.05-0.15 17.68 76.07 22.03 163.34 30.229 221.18 90.789 9.98 8.56 20.81-9.9994 9.2297-15.359-61.04-61.47-151.31-70.479-230.26-93.109zm236.07 182.06c-6.5546 0.0667-14.569 6.0544-15.442 13.589-39.26 88.94-50.071 188.79-97.531 274.47-11.62 20.16-27.91 42.531-52.83 45.441-9.82 1.88-25.989-9.6003-29.039 6.3797 1.33 13.57 18.859 13.05 29.309 13.73 37.01-0.64 60.37-34.659 76.1-64.019 37.22-74.04 51.18-156.68 77.25-234.74 5.24-15.83 12.9-30.8 20.83-45.27-0.3615-6.8981-4.1621-9.6238-8.6469-9.5781zm-1190.1 317.64c-1.0837 0.044-2.4088 0.39063-4.025 1.1094-14.13 20.51-4.42 50.749 15.75 63.909 46.41 32.33 104.85 36.111 157.85 51.131 28.04 11.3 57.78 17.56 86.27 27.55 38.93-3.2 75.8 20.28 94.23 53.95 8.82 11.99 7.2106 30.719 21.541 38.509 41.03 29.16 91.61 38.26 139.25 50.78 6.74 2.49 10.569-7.09 5.5188-10.75-34.82-9.1-71.379-12.66-104.57-27.28-17.42-7.66-34.601-19.94-42.141-37.98 1.03-23.37-12.42-42.841-30.12-56.761-19.1-12.95-42.27-16.579-63.95-22.969-73.32-18.73-147.74-36.071-217.16-66.911-20.81-10.56-45.571-21.38-54.661-44.62-0.4725-5.46 3.8017-19.977-3.7844-19.669zm54.308 4.0281c-8.8608-0.21465-14.57 16.62-4.4531 20.931 76.25 51.18 168.15 68.18 255.25 91.68 29.04 7.44 58.1 19.78 88.7 15.5 32.87-2.74 65.371-17.57 98.561-9.75 23.48 5.38 43.14 20.101 62.53 33.641 8.05 4.93 15.75 10.73 24.42 14.6 12.51 3.95 19.09-17.021 6.2797-20.561-39.7-21.54-75.7-51.46-120.3-62.66-26.02-7.15-53.26-2.1506-78.82 4.4094-69 11.4-139.95-2.1597-205.1-25.48-42.94-14.92-83.79-35.56-121.93-60.25-1.7766-1.3969-3.5263-2.0212-5.1672-2.0609zm-378.63 47.603c-6.9841-0.007-13.971 0.0994-20.961 0.32813-55.22 2.15-113.15 10.481-160.01 41.941-26.44 18.27-47.829 44.69-57.389 75.58-0.84 55.91 32.229 105.45 70.809 143.13 71.54 68.11 161.76 112.35 253.52 146.53 106.99 38.21 219.89 62.991 333.78 63.441 74.3-1.85 158.05-9.96 213.72-65.15 45.97-45.57 44.269-123.46 4.7891-172.62-41.69-54.88-103.15-90.24-164.23-119.78-104.1-48.24-215.32-80.22-328.21-99.8-48.212-7.9538-96.93-13.55-145.82-13.598zm-2.65 21.808c36.588-0.0323 73.444 3.4034 109.48 7.7797 143.41 21.17 286.09 62.081 410.15 138.86 25.46 15.7 56.171 28.69 70.111 56.88 4.26 12.1 5.7088 25.82 2.8688 38.38-3.68 28.38-14.019 55.62-24.339 82.25-9.85 22.74-21.35 46.23-40.67 62.35-31.96 30.18-82.611 28.27-121.84 25.1-131.92-3.44-261.76-35.809-383.63-85.459-57.78-24.14-114.75-52.481-162.76-93.241-39.92-33.27-74.031-80.75-72.591-134.87 18.91-53.75 75.7-82.279 128.85-90.469 27.619-5.4119 55.914-7.5358 84.372-7.5609zm766.38 56.584c-1.9555-0.022-3.9406 0.0534-5.9562 0.23594-9.94 2.72-9.25 21.539 2.85 20.259 38.6 4.11 63.89 42.651 103.77 42.191 6.63-2.06 10.939-11.621 6.5594-17.591-9.23-5.27-20.519-5.0497-29.859-10.18-25.162-12.319-48.031-34.586-77.364-34.916zm-861.01 0.94376c-3.7164-0.052-7.43 0.1128-11.112 0.55156-10.33 1.02-23.58 4.5106-25.98 16.291-2.7 16.66 6.99 31.65 15.45 45.18 56.06 82.51 144.11 136.08 234.11 174.87 115.07 48.3 242.83 77.071 367.42 55.691 24.96-5.23 60.811-14.24 64.391-44.67-1.49-33.78-29.629-57.821-52.959-78.861-57.02-46.99-122.2-83.879-190.72-111.29-16.78-5.32-33.59-13.381-51.52-12.461-7.45 1.69-6.7094 11.591-4.1094 16.981 4.73 6.05 13.26 4.5488 19.88 6.1688 66.56 11.23 124.6 48.02 180.91 83.17 27.05 16.3 56.84 34.181 68.88 65.041 6.36 13.72 5.4112 32.529-8.2688 41.459-25.53 17.03-57.961 16.101-87.331 17.741-111.69-0.05-221.28-30.09-323.9-72.62-65.87-29.43-128.42-69.131-176.76-123.24-11.22-13.34-24.241-26.67-27.991-44.28-2.06-14.34 18.011-13.73 26.981-11.78 13.11 0.63 12.209-19.96 1.1094-22.12-6.0813-1.0438-12.284-1.7352-18.478-1.8219zm825.59 47.055c-9.6313 0.0324-14.773 15.846-5.0672 20.088 40.95 6.43 75.66 30.92 114.93 42.62 7.79 1.55 20.96 7.7003 25.97-1.8297 5.87-9.41-4.6306-17.98-14.091-17.1-41.08-10.17-76.35-37.07-118.62-43.25-1.081-0.36468-2.1255-0.53147-3.1219-0.52812zm-1590.5 80.03c-2.0039-0.0524-4.0806 0.26595-5.8469 0.6672-4.23 1.49-6.1509 6.1603-8.9609 9.3203-50.13 65.88-102.07 133.29-173.23 177.71-51.17 32.17-111.76 48.399-172.07 48.319-8.18 0.64-12.06 10.391-8.1203 17.191 4.07 13.17 8.56 26.22 12.55 39.43 56.52 165.25 134.12 326.45 252.75 456.45 77.92 81.59 175.42 148.2 286.68 173.33 66.95 15.99 136.96 17.411 204.87 7.0109 38.11-9.39 74.291-25.45 112.83-33.3 19.57-4.27 38.489 4.1691 56.859 9.8391-8.61 2.93-9.3303 12.91-3.7203 19.67 35.43 41.63 36.48 101.82 73.42 142.52 83.13 92.11 207.35 133.22 325.08 155.86 18.39 147.75 16.101 296.95 16.011 445.61-4.71 197.66-13.531 401.09-85.331 587.88-28.67 71.48-68.94 140.42-128.55 190.46-56.71 48.17-130.46 73.141-204.22 76.811-146.19 5.38-295.24-51.94-397.56-157.05-34.17-36.68-62.41-78.71-84.18-123.82-61.96-130.12-75.499-278.12-68.459-420.33 4.7-83.09 25.569-170.44 84.659-232.37 62.16-62.84 158.17-95.34 244.78-71.3 67.71 19.37 121.93 72.99 150.77 136.23 26.95 56.37 34.11 119.69 38.8 181.26 2.72 44.73 1.6203 89.77-5.0297 134.13-6.25 37.26-16.96 75.609-42.37 104.66-16.47 39.75-53.931 69.481-96.391 76.511-35.65 16.06-77.749 12.339-112.01-5.5406-27.14-9.68-50.669-28.72-65.709-53.27-15.9-25.27-24.091-54.469-36.441-81.609-16.67-51.04 4.5706-106.1 35.541-147.12 30.32-39.74 74.629-73.62 126.14-76.68 10.87-0.44 10.91-21.29-0.5-20.6-49.54 1.28-101.69 14.36-138.48 49.43-41.15 39.52-52.69 101.2-43.52 155.84 13.35 83.67 60.67 166.43 137.18 206.81 48.05 25.46 109.34 15.291 148.98-21.009 86.85-76.53 116.72-199.36 110.12-311.2-5.12-99.82-34.759-200.77-95.969-280.93-40.38-52.76-101.84-93.98-170.15-93.95-73.02 0.31-139.04 39.831-191.78 87.311-60.92 53.52-89.429 134.26-99.139 212.86-11.57 97.15-0.3303 195.02 13.48 291.36 13.74 86.92 42.861 172.18 90.541 246.48 45.91 71.98 110.23 132.35 185.9 172.1 89.13 45.66 190.89 67 290.82 59.78 67.12-5.04 134.82-24.149 189.62-64.359 57.95-42.31 99.34-103.62 128.63-168.38 64.48-145.1 81.76-305.04 100.92-461.08 10.94-96.4 17.34-195.39 19.73-290.8 102.72 69.8 234.81 75.141 353 82.561-32.59 116.84-49.6 237.37-62.18 357.81-9.11 87.82-14.48 176.06-13.22 264.33-46.49-19.28-79.859-59.87-105.29-101.9-46.44-80.43-67.3-173.4-72.53-265.47-3.94-88.23 6.6694-177.25 32.309-261.82 2.62-11.74-17.17-16.29-20.45-5.25-19.35 64.2-30.66 130.81-34.25 197.75-5.22 117.82 12.05 241.35 73.82 343.89 29.24 48.88 70.069 95.201 125.79 113.29 5.03 146.53 21.56 296.83 83.3 431.62 31.76 68.45 76.53 131.89 136.05 178.94 47.29 38.19 103.36 63.551 160.32 83.711 72.59 24.14 150.1 38.199 226.61 28.339 63.03-7.02 124.79-33.919 169.19-79.809 84.64-89.87 115.75-216.97 118.78-337.35-1.3-84.79-11.169-173.39-52.959-248.82-48.12-88.03-141.97-150.83-242.99-155.05-56.29-2.62-113.76 12.49-160.05 45-55.04 38.01-92.279 97.611-110.81 161.19-16.72 52.46-16.53 110.8 4.7703 161.94 31.13 78.14 117.64 137.95 203.07 118.89 71.3-15.43 117.19-83.54 133.9-150.75-1.11-11.07-18.981-12.121-21.061-1.3406-14.98 51.82-49.61 101.41-102.2 119.76-59.36 21.77-129.43-1.07-169.07-49.2-29.64-34.71-43.66-81.601-40.98-126.83 3.04-65.75 30.21-129.88 74.8-178.23 48.51-51.86 118.84-85.49 190.63-82.42 72.47 0.58 141.03 39.391 186.27 94.761 69.82 88.1 91.79 205.09 88.57 315.07-4.6 91.05-26.89 185.03-83.98 258.08-66.1 84.75-178.92 121.45-283.6 112.92-147.3-10.6-295.2-87-371.2-216.4-85.3-143.7-113.4-313.8-118.2-478.6 92.81 18.3 179.27-38.32 239.29-103.87 53.51-56.9 95.171-128.97 101.99-207.97 6.34-70.86-20.84-142.16-67.9-194.69-27.79-32.49-74.271-52.091-116.26-37.511-57.2 18.73-88.079 81.37-87.739 138.65 2.22 39.65 15.899 78.72 38.589 111.27 11.68 16.3 28.23 31.95 49.1 33.83 26.75-0.21 45.02-24.54 55.87-46.3 3.45-10.28-12.09-18.269-18.15-9.7188-8.34 13.73-17.71 29.23-34.27 33.85-14.86 2.95-27.909-7.9012-36.369-18.831-39.3-51.69-46.541-129.3-9.1906-183.9 16.83-22.93 41.651-44.629 71.791-43.909 38.45 2.11 67.849 31.88 88.289 61.92 34.94 50.6 49.741 114.43 40.161 175.23-17.12 117.56-102.81 222.26-213.64 264.37-32.26 12.65-68.271 16.829-102.04 7.8594-2.3-113.29 6.96-227.09 22.3-339.56 18.05-119.27 38.32-239.22 78.8-353.26 43.12-123.29 117.9-240.34 229.42-311.6 149.38 80.25 325.32 103.99 492.32 81.32 2.19-0.53 4.3706 0.15 6.5406 0.65 31.7-8.26 66.46-11.609 98.65-20.939 55.54-15.13 110.38-34.53 160.7-62.8 27.82-15.36 52.08-36.751 81.15-49.831 12.79-6.17 29.31-3.5197 38.3 7.9203 17.79 21.93 25.969 49.701 34.659 76.091 4.04 8.5 14.251 4.9197 21.591 5.6297 157.88-4.59 315.67-16.86 472.48-36.55 5.56-0.47 10.8-5.56 10.4-11.25-6.09-20.71-13.211-41.101-18.991-61.891-23.03-74.27-46.879-148.66-67.389-223.48-6.17-17.87-10.69-36.84-18.27-54.15-7.6-5.18-20.191-0.37-17.611 9.8 24.87 87.54 78.64 170.52 69.97 264.61 1.73 4.1-1.2791 4.8494-3.7891 5.7094 1.42-0.01 3.3888-0.2297 2.8188 1.9203-2.92 19.78-12.059 40.57-30.869 49.93-27.37 13.18-58.501 12.93-88.081 15.92-56.66 4.96-112.84 15.17-169.75 17.32-39.3 0.79-80.95-1.97-115.8-22-36.34-19.41-60.299-55.721-74.419-93.481-2.33-7.27-12.861-9.7194-17.991-3.8594-68.35 58.14-148.35 102.52-233.55 130.53-91.5 31.56-189.26 46.071-285.95 41.711-27.09-0.26-54.371-2.2906-81.041-6.9906-70.44-8.45-139.66-28.191-204.09-57.841-13.46-5.57-26.49-12.089-39.22-19.139 3.18-3.16 7.4797-4.8109 11.33-7.0109-5.45-5.25-11.1-10.319-16.95-15.069-5.42 3.17-10.38 7.1591-16.03 9.8891-72.02-42.04-135.35-98.98-183.96-166.8-4.25-8.82-18.17-7.1291-20.27 2.1609-22.17 56.4-69.41 100.85-124.83 124.07-3.08 1.27-6.19 2.4106-9.25 3.6906-96.09 41.17-205.46 36.409-306.51 17.909-1.51-6.01-2.2594-12.17-2.5594-18.33-10.18-3.32-20.641-5.7797-30.741-9.3297 1.18 6.64 2.0209 13.351 2.7109 20.091-116.09-27.86-230.88-82.24-309.93-173.95-37.03-43.86-63.199-99.59-63.069-157.8-1.18-6.79 2.17-15.21-3.4-20.75-5.12-5.39-13.021-1.18-18.711 1.05-109.31 41.28-230.25 61.09-345.74 36.73-69.63-11.58-137.3-39.131-195.86-78.491-93.25-58.37-166.37-144.54-223.1-237.87-34.2-59.36-72.16-116.76-100.88-179.12-13.67-33.7-36.05-73.74-16.13-109.15 5.58-12.08 9.3303-26.93 20.67-34.6 24.75 4.57 48.859-4.4106 68.509-19.091 69.76-51.75 134.02-110.55 204.24-161.7 7.38-4.7 19.249-14.81 26.459-4.2297 25.8 32.46 42.04 71.31 59.33 108.7 27.89 56.24 49.98 115.41 80.82 170.19 60.4 84.82 140.47 154.73 229.03 208.96 182.65 111.1 396.91 151.97 606.3 177.64 6.71 2.15 11.041-3.2197 12.661-8.7797-4.33-19.39-28.97-11.94-43.05-16.78-112.43-14.56-223.98-38.25-331.51-74.47-121.14-41.23-237.46-100.38-334.82-184.2-77.78-67.71-144.07-149.66-189.58-242.41-16.77-32.09-32.68-65.671-43.25-100.14-14.81-34.01-23.199-70.54-33.309-106.13-1.1562-3.5-4.293-4.6204-7.6328-4.7078zm645.97 106.48c-8.652 0.37672-15.438 12.539-8.0531 18.822 26.76 13.52 53.45 27.689 78.38 44.489 60.54 37.47 120.5 80.48 191.4 95.68 62.14 14.79 125.97 19.241 189.05 27.991 8.02 2.52 23.5 1.5597 23.52 12.93-8.74 7.6-19.91 11.561-30.85 14.791-85.76 30.91-176.75 47.529-267.97 47.839-31.87 2.64-63.81-2.1594-95.7 0.6406-5.73-0.59-13.62 2.69-17.85-2.6-37.4-60.31-55.16-130.41-74.47-198.19-0.98-3.96-4.5897-6.049-8.1797-7.239-7.74-1.14-15.45 5.7994-12.55 13.759 18.8 72.16 51.84 140.77 62.13 215 6.74 12.17-12.72 15.87-16.7 6.4297-4.73-11.03-5.1988-23.269-6.7188-35.019-17.65-78.18-51.12-152.79-58.45-233.19-0.39-13.58-25.461-12.171-21.681 2.2094 9.29 99.29 56.751 190 68.961 288.74 13.66 12.68 35.33 0.5503 50.48-2.9297 11.38 7.01 21.36-5.6706 31.23-9.9406 42.04-24.05 91.71-14.299 137.58-11.939 55.3 0.76 108.26-17.801 161.61-29.861 44.35-10.89 89.47-23.96 126.95-51.07 7.14-6.2 14.53-12.119 21.17-18.889 7.15-5.65 4.3691-18.951-5.1609-19.991-30.23-2.64-60.61-3.7791-90.87-5.8891-100.39-8.39-206.49-20.241-291.07-80.011-43.75-27.85-84.87-60.54-132.4-81.95-1.2762-0.47872-2.5515-0.66472-3.7875-0.61096zm788.69 993.74c14.8 2.69 25.17 16.561 36.35 25.961 46.24 40.5 81.99 93.2 134.08 126.67-125.38 85.77-203.08 224.07-246.09 366.95-72.86-4.72-146.5-7.62-217.82-24.8-50.43-11.68-100.31-30.78-140.9-63.6 0.29-84.52-1.9194-169.1-11.159-253.17 36.86 34.55 83.4 59.07 131.45 75.4 105.19 36.14 217.34 43.5 327.55 49.3 11.85 0.15 12.22-19.43 1.1797-21.2-109.76-5.5-221.54-13.111-326.15-49.691-51.52-18.66-102.48-45.519-137.16-89.039-0.25-4.37-6.0097-16.51 3.1703-14.07 121.24 15.98 254.36 17.89 363.38-45.65 34.03-20.26 52.21-58.291 82.12-83.061z" fill="#231f20"/>
<path id="path8" d="m7273.2 189.43c-7.67 72.55-37.56 150.37-6.1297 220.62-13.46-69.84-0.1203-140.9 17.33-208.71-3.92-3.32-7.41-9.8909-11.2-11.911zm28.509 30.161c-11.62 46.01-19.809 95.029-8.1391 141.89 11.58 47.91 40.459 88.861 58.839 134.09 2.59 8.33 15.641 4.5503 18.341 12.82 3.44 9.76 4.8603 20.099 6.4703 30.289 13.05 8.19 27.69 15.15 43.37 15.55 3.05-15.98 19.219-4.4997 29.039-6.3797 19.28-9.7 32.431-27.829 43.511-45.759 28.76-50.15 40.87-107.16 59.7-161.27-30.5 11.45-64.5 5.22-93.8-6.82-60.3-25.65-110.6-69.42-157.3-114.41z" fill="#aa2458"/>
<path id="path14" d="m5914.1 442.77c-5.6035 0.0175-12.125 0.69843-17.131 0.23594-141.42 1.35-284.74 11.011-421.25 50.731-69.65 21.37-139.92 51.36-190.76 105.25-48.51 49.84-65.77 124.5-52.05 191.72 4.71-1.07 11.63-1.5594 13.48 4.0406 10.11 35.59 18.499 72.12 33.309 106.13 1.94 2.85 4.0009 5.6297 6.2109 8.2797-21.46-67.8-23.481-144.03 5.1891-210.04 38.85-90.78 128.29-146.09 217.16-179.84 132.33-49.61 274.38-65.2 414.41-75.43-2.175-0.85875-5.2067-1.087-8.5687-1.0766zm210.11 14.162c-113.09 0.0376-226.28 6.7647-338.03 24.273-97.99 15.95-195.13 40.74-286.2 80.8-55.28 24.1-108.44 56.881-147.28 103.73-37.59 43.91-56.85 103.28-49.35 160.9 13.35 92.34 69.84 173.74 137.87 235.11 88.32 64.51 184.8 116.9 283.58 163.42 201.73 94 413.58 164.35 627.6 224.41 170.57 47.05 342.95 87.82 516.96 120.03 240.51 43.81 485.02 74.04 729.86 64.67 150.69-8.68 309.8-27 438.69-112.33 50.7-45.62 71.47-117.98 60.55-184.44-17.2-102.5-78-191.8-147.6-266.4-152.9-113.2-314.6-214.82-482.9-303.45-38.45-18.71-78.679-33.49-118.39-49.28-2.05-0.61-5.83-2.9309-6.65 0.28907-23.96 62.19-56.47 120.92-77.98 184.06 54.02 11.99 114.98 30.849 146.14 80.159 21.26 20.87 48.66 48.56 37.2 81.23-18.44 36.65-62.5 54.93-102.08 53.75-49.79-2.84-98.29-17.049-144.3-35.759-43.79-18.49-86.559-41.71-120.51-75.5-15.08-16.01-28.671-35.12-31.861-57.4-3.38-23.47 6.58-50.339 28.65-61.259 26.52-13.09 57.39-6.7806 84.97-15.991 37.09-12.44 78.381-22.959 103.99-55.009 25.19-32.36 36.78-72.391 51.98-109.84-103.13-39.12-208.1-73.34-313.05-107.18-10.81-2.98-26.641-6.0209-26.111-20.661-238.14-55-479.55-97.079-722.99-119.64-44.136-1.7888-88.378-2.7991-132.63-2.7844zm321.07 65.211c8.3948-0.17859 17.162 4.22 24.805 6.7625 46.74 20.36 92.21 45.49 136.57 69.42 65.15 23.32 136.1 36.88 205.1 25.48 25.56-6.56 52.8-11.559 78.82-4.4094 44.55 11.2 80.58 41.119 120.27 62.659 12.81 3.54 6.2303 24.511-6.2797 20.561-8.67-3.87-16.37-9.67-24.42-14.6 0.15 9.81-0.2806 19.65-1.4406 29.4-8.94 12.31-20.11 23.24-27.73 36.37 9.46-0.88 19.961 7.69 14.091 17.1-5.01 9.53-18.18 3.3797-25.97 1.8297-1.68 9.63-1.8903 19.41-2.2203 29.15-51.74-5.37-100.39-28.39-141.95-58.95 7.54 18.04 24.721 30.32 42.141 37.98 33.19 14.62 69.749 18.18 104.57 27.28 5.05 3.66 1.2212 13.24-5.5188 10.75-47.64-12.52-98.22-21.62-139.25-50.78-14.33-7.79-12.721-26.519-21.541-38.509-18.43-33.67-55.3-57.15-94.23-53.95-28.49-9.99-58.23-16.25-86.27-27.55-53-15.02-111.44-18.801-157.85-51.131-20.17-13.16-29.88-43.399-15.75-63.909 12.93-5.75 7.2694 12.319 7.8094 18.559 9.09 23.24 33.851 34.06 54.661 44.62 69.42 30.84 143.84 48.181 217.16 66.911-48.54-21.31-100.83-33.831-151.49-49.581-33.37-9.78-68.521-18.69-96.361-40.63-14.65-10.67-25.749-31.469-15.939-48.889 2.66-1.315 5.4158-1.8842 8.2141-1.9438zm-344.35 61.475c48.888 0.0487 97.606 5.6447 145.82 13.598 112.89 19.58 224.11 51.56 328.21 99.8 61.08 29.54 122.54 64.9 164.23 119.78 39.48 49.16 41.181 127.05-4.7891 172.62-55.67 55.19-139.42 63.3-213.72 65.15-113.89-0.45-226.79-25.231-333.78-63.441l0.05 0.8c-86.98-19.52-172.08-49.159-250.93-90.959-49.49-27.4-98.32-59.61-132.25-105.77-12.93-18.9-22.941-40.799-22.581-64.159 1.19-33.58 26.47-60.841 54.72-76.111 25.86-14.05 55.83-25.489 84.05-29.039 46.86-31.46 104.79-39.791 160.01-41.941 6.99-0.22875 13.977-0.33508 20.961-0.32813zm-2.65 21.808c-28.457 0.0251-56.753 2.1491-84.372 7.5609 123.14-5.63 246.58 13.819 364.56 48.519 86.18 26.89 171.49 61.461 244.45 115.54 26.13 19.62 50.459 42.46 67.969 70.28 2.84-12.56 1.3912-26.28-2.8688-38.38-13.94-28.19-44.651-41.18-70.111-56.88-124.06-76.78-266.74-117.69-410.15-138.86-36.034-4.3762-72.89-7.812-109.48-7.7797zm-866.6 287.42c-9.9 51.98-42.66 98.49-87.47 126.53-68.29 43.87-150.87 57.031-230.46 62.411-19.92 35.41 2.4597 75.45 16.13 109.15 28.72 62.36 66.68 119.76 100.88 179.12 56.73 93.33 129.85 179.5 223.1 237.87 63.25 30.94 128.66 57.411 195.86 78.491 115.49 24.36 236.43 4.5503 345.74-36.73 5.69-2.23 13.591-6.44 18.711-1.05 5.57 5.54 2.22 13.96 3.4 20.75 8.38-0.22 21.56-10.32 24.9 2.0297 73.79 139.07 194.28 258.56 345.39 309.63 10.1 3.55 20.561 6.0097 30.741 9.3297 100.83 27.62 207.75 23.11 309.07 0.4203 3.06-1.28 6.17-2.4206 9.25-3.6906 46.66-52.2 94.599-103.45 142.47-154.55 67.86 61.36 135.55 123 202.62 185.23 5.85 4.75 11.5 9.8188 16.95 15.069 9.28 8.72 19.431 16.57 27.891 26.15 64.43 29.65 133.65 49.391 204.09 57.841 27.02 2.21 54.051 4.3106 81.041 6.9906 96.69 4.36 194.45-10.151 285.95-41.711 89.62-89.5 179.55-179.52 269.91-267.91 43.03 64.47 84.121 131.94 127.59 196.72 110-8.85 220.07-17.111 330.14-25.091 2.51-0.86 5.5191-1.6094 3.7891-5.7094 8.67-94.09-45.1-177.07-69.97-264.61-2.58-10.17 10.011-14.98 17.611-9.8-14.62-42.13-28.79-84.42-43.47-126.52-6.21 0.71-11.71 4.8609-17.58 6.9109-265.21 120.17-559.62 168.75-849.57 160.32-358.53-9.57-711.68-96.991-1044.6-227.56-1.62 5.56-5.9509 10.93-12.661 8.7797-209.39-25.67-423.65-66.539-606.3-177.64-88.56-54.23-168.63-124.14-229.03-208.96-30.84-54.78-52.93-113.95-80.82-170.19-24.5-22.29-46.37-48.29-61.28-78.02zm652.9 3.6687c1.236-0.0538 2.5113 0.13224 3.7875 0.61096 47.53 21.41 88.65 54.1 132.4 81.95 97.09 25.47 195.41 52.581 291.07 80.011 30.26 2.11 60.64 3.2491 90.87 5.8891 9.53 1.04 12.311 14.341 5.1609 19.991 14.11 3.06 27.759 8.0197 41.859 11.23-19.82 3.24-42.15 5.5194-63.03 7.6594-37.48 27.11-82.6 40.18-126.95 51.07-53.35 12.06-106.31 30.621-161.61 29.861-45.87-2.36-95.54-12.111-137.58 11.939-9.87 4.27-19.85 16.951-31.23 9.9406-15.15 3.48-36.82 15.61-50.48 2.9297-12.21-98.74-59.671-189.45-68.961-288.74-3.78-14.38 21.291-15.789 21.681-2.2094 7.33 80.4 40.8 155.01 58.45 233.19 1.52 11.75 1.9888 23.989 6.7188 35.019 3.98 9.44 23.44 5.7403 16.7-6.4297-10.29-74.23-43.33-142.84-62.13-215-2.9-7.96 4.81-14.899 12.55-13.759-0.85-5.95-2.92-11.61-4.2-17.45 31.86 8.1 63.29 17.939 95.25 25.609-24.93-16.8-51.62-30.969-78.38-44.489-7.385-6.2825-0.5989-18.445 8.0531-18.822zm741.2 95.41c-39 14.31-80.211 24.15-121.84 25.1 39.23 3.17 89.881 5.08 121.84-25.1zm-1302.9 9.0906c45.51 92.75 111.8 174.7 189.58 242.41 97.36 83.82 213.68 142.97 334.82 184.2 107.53 36.22 219.08 59.91 331.51 74.47-121.17-51.22-243.55-106.59-359.92-170-166.34-89.11-328.15-189.06-472.82-310.78-7.63-6.88-15.28-13.74-23.17-20.3zm1886 57.12c32.84 18.68 74.05 31.83 110.13 14.03-37.34 2.12-74.27-4.2897-110.13-14.03zm-2391.8 22.7c20.44 124.67 81.43 241.36 168.33 332.62 44.71 47.77 95.75 89.6 150.28 125.7-118.63-130-196.23-291.2-252.75-456.45-22 1.08-43.919-0.8903-65.859-1.8703zm1511 30.411c-127.18 15.1-254.53 29.56-381.52 45.88 4.23 5.29 12.12 2.01 17.85 2.6 31.89-2.8 63.83 1.9994 95.7-0.6406 91.22-0.31 182.21-16.929 267.97-47.839zm1867.2 648.66c20.51 74.82 44.359 149.21 67.389 223.48 2.08-0.96 9.7106 0.5506 7.8406-4.0094-25.17-73.12-49.84-146.44-75.23-219.47zm-732.9 356.16c-32.19 9.33-66.95 12.679-98.65 20.939 24.21 1.58 48.389 4.1109 72.609 5.8609 8.67-8.72 19.071-17.89 26.041-26.8z" fill="#f8d872"/>
<path id="path18" d="m6437.1 524.09c10.64-5.26 22.83 1.43 33.02 4.82 46.74 20.36 92.21 45.49 136.57 69.42-42.94-14.92-83.79-35.56-121.93-60.25-11.37-8.94-21.61 13.76-9.62 18.87 76.25 51.18 168.15 68.18 255.25 91.68 29.04 7.44 58.1 19.78 88.7 15.5 32.87-2.74 65.37-17.57 98.56-9.75 23.48 5.38 43.14 20.1 62.53 33.64 0.15 9.81-0.28 19.65-1.44 29.4-8.94 12.31-20.11 23.24-27.73 36.37-41.08-10.17-76.35-37.07-118.62-43.25-11.53-3.89-18.9 14.88-8.19 19.56 40.95 6.43 75.66 30.92 114.93 42.62-1.68 9.63-1.89 19.41-2.22 29.15-51.74-5.37-100.39-28.39-141.95-58.95 1.03-23.37-12.42-42.84-30.12-56.76-19.1-12.95-42.27-16.58-63.95-22.97-48.54-21.31-100.83-33.83-151.49-49.58-33.37-9.78-68.52-18.69-96.36-40.63-14.65-10.67-25.75-31.47-15.94-48.89m421.64 138.16c-9.94 2.72-9.25 21.54 2.85 20.26 38.6 4.11 63.89 42.65 103.77 42.19 6.63-2.06 10.94-11.62 6.56-17.59-9.23-5.27-20.52-5.05-29.86-10.18-26.84-13.14-51.07-37.6-83.32-34.68z" fill="#91a4a9"/>
<path id="path28" d="m6060.1 612.04c-15.391-0.0608-30.789 0.25093-46.181 0.95468-53.15 8.19-109.94 36.719-128.85 90.469-1.44 54.12 32.671 101.6 72.591 134.87 48.01 40.76 104.98 69.101 162.76 93.241 121.87 49.65 251.71 82.019 383.63 85.459 41.63-0.95 82.841-10.79 121.84-25.1 19.32-16.12 30.82-39.61 40.67-62.35 10.32-26.63 20.659-53.87 24.339-82.25-17.51-27.82-41.839-50.66-67.969-70.28-72.96-54.08-158.27-88.651-244.45-115.54-103.23-30.363-210.65-49.048-318.38-49.473zm-140.13 13.855c-28.22 3.55-58.19 14.989-84.05 29.039-28.25 15.27-53.53 42.531-54.72 76.111-0.36 23.36 9.6512 45.259 22.581 64.159 33.93 46.16 82.76 78.37 132.25 105.77 78.85 41.8 163.95 71.439 250.93 90.959l-0.05-0.8c-91.8-34.19-182.1-78.43-253.6-146.54-38.58-37.68-71.649-87.22-70.809-143.13 9.56-30.89 30.949-57.31 57.389-75.58zm83.692 37.067c6.1941 0.0867 12.397 0.77812 18.478 1.8219 11.1 2.16 12.001 22.75-1.1094 22.12-8.97-1.95-29.041-2.5603-26.981 11.78 3.75 17.61 16.771 30.94 27.991 44.28 48.34 54.11 110.89 93.811 176.76 123.24 102.62 42.53 212.21 72.57 323.9 72.62 29.37-1.64 61.801-0.71064 87.331-17.741 13.68-8.93 14.629-27.739 8.2688-41.459-12.04-30.86-41.83-48.741-68.88-65.041-56.31-35.15-114.35-71.94-180.91-83.17-6.62-1.62-15.15-0.11876-19.88-6.1688-2.6-5.39-3.3406-15.291 4.1094-16.981 17.93-0.92 34.74 7.1409 51.52 12.461 68.52 27.41 133.7 64.299 190.72 111.29 23.33 21.04 51.469 45.081 52.959 78.861-3.58 30.43-39.431 39.44-64.391 44.67-124.59 21.38-252.35-7.3906-367.42-55.691-90-38.79-178.05-92.36-234.11-174.87-8.46-13.53-18.15-28.52-15.45-45.18 2.4-11.78 15.65-15.271 25.98-16.291 3.6824-0.43876 7.396-0.6036 11.112-0.55156z" fill="#fff"/>
<path id="path44" d="m7248.7 909.64c5.29-2.92 12.48-0.98 16.13-6.82 54.02 11.99 114.98 30.85 146.14 80.16-27.39-21.55-56.6-41.31-88.44-55.67-9.07-3.23-16.68 12.41-6.62 15.8 22.52 11.27 44.92 30.13 48.88 56.4 5.1 31.66-17.72 60.78-45.7 72.66-37.34 2.12-74.27-4.29-110.13-14.03-14.89-7.06-27.73-17.77-42.96-24.14-14.58-6.91-30.69-15.62-36.5-31.72-3.3-13.21 4.96-25.17 13.78-33.99 30.28-27.19 68.45-42.86 105.42-58.65z" fill="#fefbdd"/>
<path id="path46" d="m5859.8 934.22c1.28 5.84 3.35 11.5 4.2 17.45 3.59 1.19 7.1997 3.279 8.1797 7.239 19.31 67.78 37.07 137.88 74.47 198.19 126.99-16.32 254.34-30.78 381.52-45.88 10.94-3.23 22.11-7.1906 30.85-14.791-0.02-11.37-15.5-10.41-23.52-12.93-63.08-8.75-126.91-13.201-189.05-27.991-70.9-15.2-130.86-58.21-191.4-95.68-31.96-7.67-63.39-17.509-95.25-25.609zm161.11 44.859c84.58 59.77 190.68 71.621 291.07 80.011-95.66-27.43-193.98-54.541-291.07-80.011zm387.1 105.89c-6.64 6.77-14.03 12.689-21.17 18.889 20.88-2.14 43.21-4.4194 63.03-7.6594-14.1-3.21-27.749-8.1697-41.859-11.23z" fill="#00a8e3"/>
</g>
</svg>
