<?xml version="1.0" standalone="no"?>
<!DOCTYPE svg PUBLIC "-//W3C//DTD SVG 20010904//EN"
 "http://www.w3.org/TR/2001/REC-SVG-20010904/DTD/svg10.dtd">
<svg version="1.0" xmlns="http://www.w3.org/2000/svg"
 width="800.000000pt" height="600.000000pt" viewBox="0 0 800.000000 600.000000"
 preserveAspectRatio="xMidYMid meet">

<g transform="translate(0.000000,600.000000) scale(0.100000,-0.100000)"
fill="#000000" stroke="none">
<path d="M6485 4308 c-11 -6 -30 -20 -42 -31 -18 -16 -20 -24 -12 -39 10 -19
11 -19 36 4 27 25 58 78 46 78 -5 0 -17 -6 -28 -12z"/>
<path d="M3517 3934 c-3 -3 10 -20 29 -36 73 -64 108 -154 149 -379 22 -120
61 -258 78 -276 4 -3 119 28 154 42 1 0 -6 28 -17 62 -10 33 -29 116 -41 184
-45 258 -106 366 -224 398 -43 12 -118 15 -128 5z"/>
<path d="M7402 3699 c-101 -78 -185 -139 -188 -136 -3 3 -6 16 -8 29 -4 39
-28 64 -69 72 -30 6 -39 4 -44 -10 -4 -11 1 -22 13 -30 44 -32 62 -55 57 -74
-4 -16 -2 -19 12 -14 29 11 13 -19 -18 -34 -35 -17 -34 -27 2 -42 40 -16 45
-34 25 -92 -17 -53 -63 -94 -192 -172 -52 -31 -84 -43 -255 -91 -51 -14 -61
-21 -87 -62 -17 -26 -30 -51 -30 -55 0 -11 86 -10 140 3 151 34 392 216 571
429 53 64 272 421 257 420 -2 0 -85 -64 -186 -141z"/>
<path d="M5245 3680 c10 -11 20 -20 23 -20 3 0 -3 9 -13 20 -10 11 -20 20 -23
20 -3 0 3 -9 13 -20z"/>
<path d="M5980 3636 c0 -2 8 -10 18 -17 15 -13 16 -12 3 4 -13 16 -21 21 -21
13z"/>
<path d="M6015 3545 c175 -228 326 -392 427 -463 l46 -32 52 91 c29 49 51 92
49 93 -2 2 -42 25 -89 52 -107 61 -290 179 -397 255 -44 33 -89 59 -99 59 -9
0 -27 8 -38 18 -11 9 11 -23 49 -73z"/>
<path d="M5311 3548 c-1 -21 -6 -27 -28 -30 -20 -2 -29 -10 -34 -31 -21 -77
-89 -190 -89 -146 0 18 31 70 39 65 4 -3 8 8 9 25 0 17 5 36 10 42 14 19 23
49 12 42 -5 -3 -19 -1 -30 5 -14 8 -20 8 -20 0 0 -7 -6 -10 -12 -7 -8 2 -23
-23 -39 -67 -14 -39 -58 -138 -96 -221 -100 -212 -100 -214 4 -107 96 99 126
113 143 66 6 -14 10 -41 10 -60 0 -44 14 -44 28 2 10 34 9 38 -34 91 -61 74
-57 91 26 120 113 40 108 35 115 105 4 35 2 79 -3 98 -9 32 -10 33 -11 8z"/>
<path d="M5161 3544 c0 -11 3 -14 6 -6 3 7 2 16 -1 19 -3 4 -6 -2 -5 -13z"/>
<path d="M6796 3379 c-39 -16 -61 -19 -104 -13 -61 7 -60 11 -10 -63 39 -58
59 -56 136 16 87 82 80 102 -22 60z"/>
<path d="M5185 3379 c-4 -6 -5 -12 -2 -15 2 -3 7 2 10 11 7 17 1 20 -8 4z"/>
<path d="M866 3333 c-47 -4 -48 -5 -42 -34 3 -19 1 -29 -6 -29 -7 0 -4 -8 6
-17 13 -13 20 -15 23 -6 3 10 12 9 35 -3 18 -10 40 -13 59 -9 21 5 29 3 29 -7
0 -16 39 32 40 50 0 6 -4 12 -9 12 -5 0 -11 10 -13 23 -3 24 -25 28 -122 20z"/>
<path d="M5256 3247 c3 -10 9 -15 12 -12 3 3 0 11 -7 18 -10 9 -11 8 -5 -6z"/>
<path d="M1275 3213 c-11 -31 -23 -103 -15 -98 4 3 13 -9 21 -26 23 -56 59
-69 190 -69 110 0 117 1 139 25 21 22 22 27 10 50 -7 14 -18 25 -24 25 -6 0
-24 7 -41 16 -21 11 -43 14 -73 9 -33 -5 -50 -2 -75 14 -21 13 -41 18 -57 14
-18 -5 -22 -3 -17 9 6 16 -21 48 -40 48 -6 0 -14 -8 -18 -17z m85 -72 c0 -5
-7 -11 -15 -15 -9 -3 -15 0 -15 9 0 8 7 15 15 15 8 0 15 -4 15 -9z m90 -21 c0
-5 -4 -10 -10 -10 -5 0 -10 5 -10 10 0 6 5 10 10 10 6 0 10 -4 10 -10z m-70
-19 c0 -12 -20 -25 -27 -18 -7 7 6 27 18 27 5 0 9 -4 9 -9z m40 -6 c0 -8 -4
-15 -10 -15 -5 0 -10 7 -10 15 0 8 5 15 10 15 6 0 10 -7 10 -15z"/>
<path d="M2479 3159 c-33 -20 -69 -64 -69 -86 0 -6 44 -18 98 -27 53 -10 113
-22 132 -27 52 -13 53 -13 47 37 -11 99 -120 153 -208 103z"/>
<path d="M1843 3133 c-4 -16 -6 -35 -5 -43 1 -8 -9 -27 -22 -42 -19 -20 -22
-29 -13 -36 18 -14 114 -15 122 -1 5 7 10 8 14 1 3 -6 5 15 5 46 -3 110 1 102
-49 102 -40 0 -45 -3 -52 -27z m37 -38 c4 3 10 -2 14 -10 7 -18 -3 -19 -26 -1
-10 7 -14 16 -11 20 4 4 9 2 11 -3 2 -6 7 -9 12 -6z m-16 -73 c-6 -8 -44 20
-39 28 3 5 14 2 24 -8 10 -9 17 -18 15 -20z m36 31 c0 -5 -5 -15 -10 -23 -7
-12 -9 -10 -7 8 1 19 17 33 17 15z"/>
<path d="M2928 3133 c6 -2 10 -9 6 -14 -3 -5 -2 -9 3 -10 4 0 20 -3 35 -5 23
-4 26 -2 21 12 -4 11 -3 15 5 10 6 -3 13 -2 17 4 4 6 -13 10 -47 9 -29 0 -47
-3 -40 -6z"/>
<path d="M643 3069 c-30 -11 -32 -43 -3 -34 32 10 52 -13 50 -59 -3 -62 -2
-65 20 -59 25 7 25 9 -7 85 -33 78 -33 78 -60 67z"/>
<path d="M4141 3040 c-140 -51 -254 -167 -302 -308 -31 -89 -30 -91 68 -141
113 -58 173 -115 173 -163 0 -49 -21 -63 -90 -62 -58 1 -121 18 -225 61 -55
23 -74 26 -235 28 -120 2 -194 7 -236 18 -52 14 -66 14 -100 2 -35 -12 -112
-23 -395 -55 -48 -6 -173 -26 -280 -45 -106 -19 -200 -33 -210 -30 -22 7 -29
-18 -36 -140 -4 -74 -1 -118 11 -169 9 -38 15 -71 12 -73 -2 -2 -60 0 -127 6
-195 15 -436 52 -577 88 -55 13 -80 14 -177 4 -214 -21 -345 -52 -345 -80 0
-13 80 -38 163 -52 38 -6 65 -14 60 -18 -4 -4 -47 -24 -96 -46 -48 -21 -86
-40 -83 -42 2 -3 13 -1 23 4 12 6 52 0 123 -18 58 -15 96 -28 85 -29 -11 -1
-15 -4 -9 -6 9 -4 179 37 374 91 33 9 75 13 105 10 28 -3 164 -10 304 -16
l255 -10 35 -31 c34 -30 125 -78 149 -78 6 0 12 -3 12 -7 0 -5 -21 -9 -48 -11
-60 -4 -190 -30 -216 -44 -19 -10 -19 -11 0 -25 10 -8 28 -12 39 -9 11 3 90
20 175 37 202 41 1042 219 1056 224 7 2 9 19 4 50 -12 79 -2 131 28 144 38 18
151 40 242 47 52 5 84 12 87 20 2 7 -5 47 -17 90 -11 42 -19 78 -17 80 2 3 15
-5 29 -16 50 -38 116 -60 187 -60 118 0 241 57 241 111 0 50 77 129 127 129
18 0 20 7 19 63 l-1 62 32 3 c30 3 32 7 39 49 23 157 -38 288 -166 355 -63 32
-192 37 -269 8z m-1091 -667 c0 -5 5 -59 10 -121 12 -131 1 -260 -28 -325 -43
-97 -134 -147 -276 -154 -210 -11 -388 79 -431 219 -18 56 -32 249 -22 290 6
24 7 25 74 15 140 -19 338 4 613 72 47 12 60 12 60 4z"/>
<path d="M5202 3020 c0 -19 2 -27 5 -17 2 9 2 25 0 35 -3 9 -5 1 -5 -18z"/>
<path d="M5201 2964 c0 -11 3 -14 6 -6 3 7 2 16 -1 19 -3 4 -6 -2 -5 -13z"/>
<path d="M6552 2900 c-19 -23 -25 -37 -17 -37 8 0 13 5 12 11 -1 6 14 11 35
12 35 1 68 17 68 34 0 4 -15 10 -34 12 -29 3 -38 -2 -64 -32z"/>
<path d="M6150 2905 c-8 -9 -8 -15 -2 -15 6 0 31 -16 56 -35 41 -31 76 -38 76
-14 0 11 -90 79 -105 79 -7 0 -18 -7 -25 -15z"/>
<path d="M6555 2840 c-15 -16 -31 -27 -35 -25 -4 3 -10 -4 -13 -15 -3 -11 -4
-20 -3 -20 1 0 22 20 46 45 24 25 42 45 39 45 -3 0 -18 -13 -34 -30z"/>
<path d="M5300 2826 c0 -2 8 -10 18 -17 15 -13 16 -12 3 4 -13 16 -21 21 -21
13z"/>
<path d="M4910 2796 c-1 -12 -3 -46 -6 -77 l-6 -56 83 5 c46 2 87 7 90 11 4 3
9 22 13 41 l6 35 -90 31 c-88 30 -90 30 -90 10z"/>
<path d="M6454 2793 c-10 -16 -17 -32 -16 -36 1 -5 -2 -6 -7 -3 -5 4 -16 -2
-23 -13 -12 -16 -23 -18 -85 -15 -39 2 -74 0 -77 -5 -8 -12 10 -18 77 -26 32
-4 57 -12 57 -17 0 -6 6 -5 15 2 8 7 12 17 8 23 -3 5 -2 7 4 4 5 -3 25 10 44
30 19 20 29 33 22 29 -6 -3 -14 -2 -18 4 -3 5 2 10 11 10 10 0 14 3 11 7 -4 3
-2 12 4 20 7 8 8 13 1 13 -5 0 -18 -12 -28 -27z"/>
<path d="M5330 2786 c0 -2 8 -10 18 -17 15 -13 16 -12 3 4 -13 16 -21 21 -21
13z"/>
<path d="M5950 2651 c-14 -26 -13 -38 2 -23 11 11 20 42 12 42 -2 0 -8 -9 -14
-19z"/>
<path d="M5946 2598 c3 -5 10 -6 15 -3 13 9 11 12 -6 12 -8 0 -12 -4 -9 -9z"/>
<path d="M5991 2587 c-6 -8 -8 -17 -4 -20 10 -11 33 -8 33 4 0 5 -5 7 -12 3
-8 -5 -9 -2 -5 9 8 20 3 22 -12 4z"/>
<path d="M5930 2562 c0 -5 11 -14 24 -21 13 -8 28 -22 33 -33 8 -19 10 -18 21
8 10 24 10 26 -1 12 -12 -15 -14 -15 -25 2 -13 22 -52 45 -52 32z"/>
<path d="M5267 2533 c-40 -21 -53 -23 -72 -15 -21 10 -25 8 -34 -19 -5 -16 -9
-29 -8 -30 1 0 25 -3 52 -5 28 -3 66 -9 85 -14 19 -6 51 -10 70 -9 40 0 142
39 147 56 7 19 -72 53 -134 58 -48 3 -66 0 -106 -22z"/>
<path d="M4790 2515 c0 -4 55 -35 64 -35 2 0 2 9 -1 20 -4 14 -14 20 -34 20
-16 0 -29 -2 -29 -5z"/>
<path d="M4671 2479 l-25 -20 45 3 c31 2 44 7 44 18 0 23 -37 22 -64 -1z"/>
<path d="M5719 2364 c-19 -14 -41 -29 -49 -34 -12 -7 -10 -12 13 -30 15 -12
43 -55 62 -95 38 -78 129 -175 165 -175 22 0 50 65 50 118 0 37 -49 132 -68
132 -5 0 -35 25 -67 55 -33 30 -62 55 -65 55 -3 0 -22 -12 -41 -26z"/>
<path d="M4263 2183 c15 -2 37 -2 50 0 12 2 0 4 -28 4 -27 0 -38 -2 -22 -4z"/>
<path d="M4348 2183 c7 -3 16 -2 19 1 4 3 -2 6 -13 5 -11 0 -14 -3 -6 -6z"/>
<path d="M4538 2183 c12 -2 32 -2 45 0 12 2 2 4 -23 4 -25 0 -35 -2 -22 -4z"/>
<path d="M4712 2183 c48 -2 129 -2 180 0 51 1 12 3 -87 3 -99 0 -141 -2 -93
-3z"/>
<path d="M5035 2180 l-50 -7 50 0 c28 -1 75 2 105 7 l55 7 -55 0 c-30 0 -77
-3 -105 -7z"/>
<path d="M5278 2173 c12 -2 30 -2 40 0 9 3 -1 5 -23 4 -22 0 -30 -2 -17 -4z"/>
<path d="M5153 2163 c15 -2 37 -2 50 0 12 2 0 4 -28 4 -27 0 -38 -2 -22 -4z"/>
<path d="M5410 2159 c19 -5 42 -18 50 -28 33 -38 96 -53 130 -31 13 9 13 11 0
20 -24 16 -108 39 -164 45 -47 4 -48 4 -16 -6z"/>
<path d="M5263 2153 c9 -2 23 -2 30 0 6 3 -1 5 -18 5 -16 0 -22 -2 -12 -5z"/>
<path d="M5333 2143 c9 -2 23 -2 30 0 6 3 -1 5 -18 5 -16 0 -22 -2 -12 -5z"/>
<path d="M5388 2138 c5 -5 16 -8 23 -6 8 3 3 7 -10 11 -17 4 -21 3 -13 -5z"/>
<path d="M6012 2067 c-7 -16 -12 -32 -12 -36 0 -4 -18 -36 -40 -71 l-41 -62
403 5 c412 5 584 18 664 52 42 17 43 30 3 44 -26 9 -38 7 -87 -18 -88 -44
-204 -65 -367 -64 -109 0 -157 5 -215 21 -99 26 -287 116 -293 139 -3 14 -6
12 -15 -10z"/>
<path d="M5613 2025 c0 -33 2 -45 4 -27 2 18 2 45 0 60 -2 15 -4 0 -4 -33z"/>
<path d="M4160 2044 c-202 -14 -347 -27 -359 -34 -7 -4 26 -10 75 -14 71 -6
108 -3 200 16 62 12 116 19 120 15 4 -4 0 -15 -9 -25 -44 -48 55 -43 153 8
l75 39 -105 -1 c-58 -1 -125 -3 -150 -4z"/>
<path d="M4512 2037 c-16 -19 -98 -68 -109 -65 -8 2 -36 -12 -168 -82 -38 -20
-142 -75 -230 -120 -88 -46 -164 -86 -170 -90 -5 -4 -73 -40 -150 -80 -77 -40
-207 -109 -290 -153 -160 -85 -245 -130 -420 -222 -132 -70 -654 -349 -710
-380 -22 -12 -85 -46 -140 -75 -211 -112 -235 -131 -201 -159 11 -9 67 18 266
129 139 77 254 140 256 140 2 0 257 141 567 313 l562 314 115 18 c127 19 600
34 600 19 0 -5 -215 -87 -478 -183 -1495 -545 -1364 -494 -1607 -629 -121 -67
-216 -122 -213 -122 6 0 957 374 1923 756 l450 177 210 8 c698 26 1105 67
1105 110 0 17 -63 37 -165 52 l-100 15 -32 -28 c-62 -55 -115 -79 -212 -94
-119 -20 -451 -38 -600 -34 l-114 3 -14 40 c-23 67 -35 176 -28 266 l7 86 306
6 c307 5 590 24 575 37 -14 13 -271 31 -528 37 -222 5 -252 4 -263 -10z m-125
-269 c6 -101 8 -187 4 -191 -5 -4 -59 -4 -121 0 l-114 8 -17 50 c-10 28 -21
78 -24 111 l-7 59 88 48 c49 25 107 58 129 71 22 13 43 25 46 25 3 1 11 -81
16 -181z m-296 -96 l4 -82 -30 0 c-45 0 -224 28 -241 38 -12 7 19 28 118 83
108 60 134 71 139 59 4 -9 8 -52 10 -98z m-336 -72 c-3 -5 -12 -10 -18 -10 -7
0 -6 4 3 10 19 12 23 12 15 0z m-65 -59 c-8 -5 -33 -11 -55 -14 -39 -6 -39 -6
-15 8 14 8 39 14 55 14 21 0 26 -2 15 -8z"/>
<path d="M5521 1955 c-1 -11 -4 -31 -7 -45 -5 -22 -4 -23 6 -7 6 10 9 30 7 45
-3 18 -5 20 -6 7z"/>
<path d="M4019 1946 c-2 -2 -256 -68 -564 -146 -636 -160 -1189 -302 -1410
-359 -82 -22 -231 -60 -330 -86 -225 -58 -388 -105 -397 -114 -14 -12 4 -52
21 -47 9 2 77 21 151 41 74 21 164 46 200 57 36 10 92 25 125 32 71 16 882
240 940 260 66 23 276 78 280 74 4 -4 -196 -63 -240 -71 -28 -5 135 -17 378
-27 l208 -8 159 76 160 77 -35 45 c-20 25 -42 52 -49 61 -12 14 -11 17 8 17
25 1 333 84 391 106 22 8 33 15 24 15 -9 1 -18 -1 -20 -3z m-572 -172 c-3 -3
-12 -4 -19 -1 -8 3 -5 6 6 6 11 1 17 -2 13 -5z m-140 -40 c-3 -3 -12 -4 -19
-1 -8 3 -5 6 6 6 11 1 17 -2 13 -5z m-77 -24 c-8 -5 -19 -10 -25 -10 -5 0 -3
5 5 10 8 5 20 10 25 10 6 0 3 -5 -5 -10z m-95 -30 c-11 -5 -29 -8 -40 -8 -16
0 -15 2 5 8 34 11 60 11 35 0z"/>
<path d="M4080 1920 c0 -34 14 -39 30 -11 15 29 12 41 -10 41 -16 0 -20 -7
-20 -30z"/>
<path d="M5601 1934 c0 -11 3 -14 6 -6 3 7 2 16 -1 19 -3 4 -6 -2 -5 -13z"/>
<path d="M5576 1875 c-9 -26 -7 -32 5 -12 6 10 9 21 6 23 -2 3 -7 -2 -11 -11z"/>
<path d="M5870 1860 c-43 -35 -120 -71 -184 -85 -88 -19 -48 -18 126 5 211 27
281 53 208 79 -18 6 -53 13 -78 16 -38 5 -52 2 -72 -15z"/>
<path d="M5473 1809 l-22 -40 40 3 c33 3 43 9 61 38 12 19 15 29 8 23 -21 -19
-71 -17 -64 2 11 28 -1 15 -23 -26z"/>
<path d="M1020 1785 c-25 -13 -40 -24 -35 -24 6 0 30 11 55 24 25 13 41 24 35
24 -5 0 -30 -11 -55 -24z"/>
<path d="M806 1736 c-38 -51 -31 -68 9 -22 19 22 35 43 35 48 0 18 -19 6 -44
-26z"/>
<path d="M1265 1760 c-25 -11 1 -11 35 0 20 6 21 8 5 8 -11 0 -29 -3 -40 -8z"/>
<path d="M5468 1753 c17 -2 47 -2 65 0 17 2 3 4 -33 4 -36 0 -50 -2 -32 -4z"/>
<path d="M1208 1743 c6 -2 18 -2 25 0 6 3 1 5 -13 5 -14 0 -19 -2 -12 -5z"/>
<path d="M1168 1733 c7 -3 16 -2 19 1 4 3 -2 6 -13 5 -11 0 -14 -3 -6 -6z"/>
<path d="M1128 1723 c7 -3 16 -2 19 1 4 3 -2 6 -13 5 -11 0 -14 -3 -6 -6z"/>
<path d="M855 1705 l-30 -14 35 6 c40 7 45 9 33 16 -4 3 -21 -1 -38 -8z"/>
<path d="M1025 1705 c-27 -7 -41 -13 -30 -13 11 0 43 6 70 13 28 7 41 13 30
13 -11 0 -42 -6 -70 -13z"/>
<path d="M938 1683 c6 -2 18 -2 25 0 6 3 1 5 -13 5 -14 0 -19 -2 -12 -5z"/>
<path d="M633 1654 c-46 -20 -70 -44 -45 -44 26 0 132 44 129 54 -6 18 -29 16
-84 -10z"/>
<path d="M855 1670 l-20 -9 20 1 c11 0 31 4 45 8 l25 8 -25 0 c-14 0 -34 -3
-45 -8z"/>
<path d="M808 1653 c7 -3 16 -2 19 1 4 3 -2 6 -13 5 -11 0 -14 -3 -6 -6z"/>
<path d="M768 1643 c7 -3 16 -2 19 1 4 3 -2 6 -13 5 -11 0 -14 -3 -6 -6z"/>
<path d="M690 1630 c-18 -12 -2 -12 25 0 13 6 15 9 5 9 -8 0 -22 -4 -30 -9z"/>
<path d="M2685 1414 c-280 -35 -600 -75 -710 -88 -169 -21 -230 -34 -390 -81
-104 -31 -174 -54 -155 -51 19 2 413 59 875 126 565 82 855 128 885 140 25 11
36 19 25 19 -11 -1 -249 -30 -530 -65z"/>
<path d="M1230 1236 c0 -2 12 -12 28 -21 l27 -18 -19 21 c-17 20 -36 29 -36
18z"/>
</g>
</svg>
